<?xml version="1.0" encoding="utf-8"?>
<!-- Generator: Adobe Illustrator 27.5.0, SVG Export Plug-In . SVG Version: 6.00 Build 0)  -->
<svg version="1.1" xmlns="http://www.w3.org/2000/svg" xmlns:xlink="http://www.w3.org/1999/xlink" x="0px" y="0px"
	 viewBox="0 0 750 500" style="enable-background:new 0 0 750 500;" xml:space="preserve">
<g id="BACKGROUND">
	<g>
		<g>
			<rect style="fill:#A4D2F5;" width="750" height="500"/>
			<rect y="404.853" style="fill:#FFFFFF;" width="750" height="95.146"/>
		</g>
		<g style="opacity:0.2;">
			<g>
				<g>
					<path style="fill:#FFFFFF;" d="M159.491,201.069H36.128c0,0,0-11.102,21.054-6.182c0,0,7.855-11.437,27.226-5.837
						c9.015-9.47,41.237-8.044,40.278,6.517C139.264,189.255,156.511,193.436,159.491,201.069z"/>
				</g>
				<g>
					<path style="fill:#FFFFFF;" d="M183.02,56.275h92.831c0,0-3.069-7.433-22.633-4.175c-4.603-12.83-26.277-9.674-30.496-5.6
						c-13.618-7.23-29.729-0.509-25.893,6.72C188.007,51.794,183.02,56.275,183.02,56.275z"/>
				</g>
				<g>
					<path style="fill:#FFFFFF;" d="M516.654,64.547h72.879c0,0,0-5.633-12.438-3.136c0,0-4.64-5.803-16.084-2.961
						c-5.326-4.804-24.362-4.081-23.795,3.306C528.604,58.552,518.415,60.674,516.654,64.547z"/>
				</g>
				<g>
					<path style="fill:#FFFFFF;" d="M556.904,87.183h112.381c0,0,0-10.114-19.18-5.632c0,0-7.155-10.419-24.803-5.317
						c-8.212-8.627-37.566-7.328-36.692,5.937C575.33,76.42,559.619,80.229,556.904,87.183z"/>
				</g>
				<g>
					<path style="fill:#FFFFFF;" d="M119.428,69.19h46.032c0,0-0.192-5.091-10.549-4.175c-3.644-8.146-19.18-5.312-22.441-0.11
						C123.072,61.655,119.428,69.19,119.428,69.19z"/>
				</g>
				<g>
					<path style="fill:#FFFFFF;" d="M368.926,60.288h46.032c0,0-0.192-5.859-10.549-4.804c-3.644-9.375-19.18-6.113-22.441-0.127
						C372.57,51.616,368.926,60.288,368.926,60.288z"/>
				</g>
				<g>
					<path style="fill:#FFFFFF;" d="M667.84,164.106h46.032c0,0-0.192-5.859-10.549-4.804c-3.644-9.374-19.18-6.113-22.441-0.127
						C671.484,155.435,667.84,164.106,667.84,164.106z"/>
				</g>
			</g>
		</g>
	</g>
</g>
<g id="OBJECTS">
	<g>
		<g>
			<path style="fill:#40649F;" d="M570.514,293.112c-0.238,0-0.478-0.002-0.719-0.005c-0.845-0.012-1.517-0.719-1.48-1.563
				l0.001-0.019c0.036-0.817,0.721-1.442,1.539-1.43c27.591,0.407,32.832-23.139,33.724-29.224c0.114-0.777,0.814-1.325,1.596-1.263
				l0,0c0.874,0.07,1.498,0.868,1.358,1.733C605.452,268.01,599.448,293.112,570.514,293.112z"/>
		</g>
		<path style="fill:#4EA2E5;" d="M553.359,416.476c0,1.361,7.399,2.465,16.525,2.465c9.127,0,16.525-1.104,16.525-2.465
			c0-1.361-7.399-2.465-16.525-2.465C560.758,414.011,553.359,415.114,553.359,416.476z"/>
		
			<ellipse transform="matrix(0.9871 -0.1602 0.1602 0.9871 -22.8349 93.7194)" style="fill:#5C8BC6;" cx="569.885" cy="188.495" rx="79.076" ry="79.076"/>
		
			<ellipse transform="matrix(0.9871 -0.1602 0.1602 0.9871 -29.8884 83.1955)" style="fill:#5C8BC6;" cx="501.083" cy="226.983" rx="23.881" ry="23.88"/>
		
			<ellipse transform="matrix(0.9999 -0.0109 0.0109 0.9999 -2.6376 5.6803)" style="fill:#5C8BC6;" cx="520.866" cy="245.308" rx="23.881" ry="23.88"/>
		<circle style="fill:#5C8BC6;" cx="547.824" cy="254.537" r="23.88"/>
		
			<ellipse transform="matrix(0.9871 -0.1602 0.1602 0.9871 -33.3459 100.6527)" style="fill:#5C8BC6;" cx="607.633" cy="257.157" rx="23.881" ry="23.88"/>
		<circle style="fill:#5C8BC6;" cx="648.746" cy="198.615" r="23.88"/>
		<circle style="fill:#5C8BC6;" cx="613.094" cy="122.682" r="23.881"/>
		<circle style="fill:#5C8BC6;" cx="527.915" cy="122.682" r="23.881"/>
		<circle style="fill:#5C8BC6;" cx="501.083" cy="161.711" r="23.88"/>
		
			<ellipse transform="matrix(0.9749 -0.2225 0.2225 0.9749 -12.4358 123.7395)" style="fill:#5C8BC6;" cx="542.942" cy="117.06" rx="25.427" ry="25.427"/>
		
			<ellipse transform="matrix(0.73 -0.6835 0.6835 0.73 -71.5889 336.7425)" style="fill:#5C8BC6;" cx="390.362" cy="258.969" rx="13.578" ry="13.578"/>
		<circle style="fill:#5C8BC6;" cx="491.634" cy="188.495" r="11.426"/>
		
			<ellipse transform="matrix(0.9999 -0.0127 0.0127 0.9999 -2.5848 6.2156)" style="fill:#5C8BC6;" cx="487.288" cy="206.282" rx="11.426" ry="11.426"/>
		<circle style="fill:#5C8BC6;" cx="505.494" cy="132.901" r="11.426"/>
		
			<ellipse transform="matrix(0.989 -0.1476 0.1476 0.989 -9.5644 84.585)" style="fill:#5C8BC6;" cx="565.001" cy="106.72" rx="11.426" ry="11.426"/>
		<circle style="fill:#5C8BC6;" cx="578.325" cy="104.558" r="14.425"/>
		
			<ellipse transform="matrix(0.7682 -0.6402 0.6402 0.7682 68.2946 405.6089)" style="fill:#5C8BC6;" cx="594.302" cy="108.488" rx="11.426" ry="11.426"/>
		
			<ellipse transform="matrix(0.6001 -0.7999 0.7999 0.6001 145.9689 567.6899)" style="fill:#5C8BC6;" cx="640.771" cy="137.851" rx="13.287" ry="13.287"/>
		
			<ellipse transform="matrix(0.9862 -0.1655 0.1655 0.9862 -16.3286 108.2394)" style="fill:#5C8BC6;" cx="641.194" cy="152.079" rx="11.426" ry="11.426"/>
		<circle style="fill:#5C8BC6;" cx="650.594" cy="224.509" r="11.426"/>
		
			<ellipse transform="matrix(0.9712 -0.2383 0.2383 0.9712 -38.1836 160.9964)" style="fill:#5C8BC6;" cx="646.918" cy="238.456" rx="11.426" ry="11.426"/>
		<circle style="fill:#5C8BC6;" cx="636.442" cy="248.018" r="11.426"/>
		
			<ellipse transform="matrix(0.386 -0.9225 0.9225 0.386 111.4688 709.0087)" style="fill:#5C8BC6;" cx="588.349" cy="270.768" rx="11.426" ry="11.426"/>
		<circle style="fill:#5C8BC6;" cx="570.378" cy="270.768" r="11.426"/>
		
			<ellipse transform="matrix(0.9732 -0.2298 0.2298 0.9732 -36.6552 152.7543)" style="fill:#5C8BC6;" cx="637.64" cy="233.784" rx="11.426" ry="11.426"/>
		<circle style="fill:#5C8BC6;" cx="650.601" cy="165.212" r="11.426"/>
		<g>
			<g>
				<g>
					<path style="fill:#40649F;" d="M670.756,192.114c-2.085,2.085-2.811,4.739-1.621,5.928c1.19,1.189,3.844,0.464,5.929-1.621
						c2.085-2.085,2.811-4.739,1.621-5.928C675.495,189.303,672.84,190.029,670.756,192.114z"/>
				</g>
				<g>
					<path style="fill:#40649F;" d="M549.667,274.683c-2.348-1.783-5.076-2.143-6.093-0.803c-1.018,1.34,0.061,3.871,2.409,5.654
						c2.348,1.783,5.076,2.143,6.093,0.803C553.093,278.998,552.014,276.466,549.667,274.683z"/>
				</g>
				<g>
					<path style="fill:#40649F;" d="M635.146,118.478c-2.085,2.085-2.811,4.739-1.621,5.929c1.19,1.189,3.844,0.464,5.929-1.621
						c2.085-2.085,2.81-4.739,1.621-5.928C639.885,115.668,637.231,116.394,635.146,118.478z"/>
				</g>
				<g>
					<path style="fill:#40649F;" d="M636.907,122.762c-2.923,0.385-5.114,2.049-4.895,3.717c0.22,1.668,2.768,2.707,5.691,2.322
						c2.923-0.385,5.115-2.049,4.895-3.717C642.378,123.417,639.83,122.377,636.907,122.762z"/>
				</g>
				<g>
					<path style="fill:#40649F;" d="M485.134,144.063c2.085,2.085,4.739,2.811,5.928,1.621c1.189-1.189,0.464-3.844-1.621-5.928
						c-2.085-2.085-4.739-2.811-5.928-1.621C482.323,139.323,483.049,141.978,485.134,144.063z"/>
				</g>
				<g>
					<path style="fill:#40649F;" d="M488.713,138.547c0.385,2.923,2.049,5.114,3.717,4.895c1.668-0.22,2.707-2.768,2.322-5.691
						c-0.385-2.923-2.049-5.114-3.717-4.895C489.367,133.077,488.328,135.624,488.713,138.547z"/>
				</g>
				<g>
					<path style="fill:#40649F;" d="M505.574,107.118c0.385,2.923,2.049,5.115,3.717,4.895c1.668-0.22,2.708-2.768,2.322-5.691
						c-0.385-2.923-2.049-5.114-3.717-4.895C506.229,101.647,505.189,104.195,505.574,107.118z"/>
				</g>
				<g>
					<path style="fill:#40649F;" d="M475.136,233.126c2.9,0.53,5.496-0.383,5.799-2.037c0.302-1.655-1.804-3.426-4.704-3.955
						c-2.9-0.53-5.497,0.382-5.799,2.037C470.129,230.825,472.236,232.596,475.136,233.126z"/>
				</g>
				<g>
					<path style="fill:#40649F;" d="M666.409,203.469c-2.085,2.085-2.811,4.739-1.621,5.929c1.19,1.189,3.844,0.463,5.929-1.621
						c2.085-2.085,2.811-4.739,1.621-5.928C671.148,200.658,668.494,201.384,666.409,203.469z"/>
				</g>
				<g>
					<path style="fill:#40649F;" d="M478.799,153.753c2.938,0.243,5.432-0.92,5.571-2.596c0.138-1.676-2.131-3.232-5.07-3.475
						c-2.938-0.243-5.432,0.92-5.571,2.596C473.591,151.955,475.861,153.511,478.799,153.753z"/>
				</g>
				<g>
					<path style="fill:#40649F;" d="M487.383,243.597c0.769-2.846,0.075-5.509-1.549-5.948c-1.624-0.439-3.564,1.513-4.332,4.36
						c-0.769,2.846-0.076,5.509,1.548,5.948C484.675,248.395,486.614,246.443,487.383,243.597z"/>
				</g>
				<g>
					<path style="fill:#40649F;" d="M555.829,95.756c2.251-1.904,3.194-4.489,2.108-5.773c-1.086-1.284-3.792-0.782-6.042,1.123
						c-2.251,1.904-3.195,4.489-2.108,5.773C550.873,98.163,553.578,97.66,555.829,95.756z"/>
				</g>
				<g>
					<path style="fill:#40649F;" d="M626.47,273.127c-0.156-2.944-1.644-5.259-3.324-5.17c-1.68,0.089-2.915,2.548-2.759,5.492
						c0.156,2.944,1.644,5.259,3.324,5.17S626.626,276.071,626.47,273.127z"/>
				</g>
				<g>
					<path style="fill:#40649F;" d="M559.082,182.707c2.251-1.904,3.195-4.489,2.108-5.773c-1.086-1.284-3.792-0.781-6.043,1.123
						c-2.251,1.904-3.195,4.489-2.108,5.773C554.126,185.115,556.831,184.612,559.082,182.707z"/>
				</g>
				<g>
					<path style="fill:#40649F;" d="M474.944,226.554c1.979,2.186,4.594,3.042,5.841,1.913c1.247-1.129,0.654-3.816-1.325-6.002
						c-1.979-2.185-4.594-3.042-5.841-1.913C472.372,221.681,472.965,224.368,474.944,226.554z"/>
				</g>
				<g>
					<path style="fill:#40649F;" d="M656.19,154.272c-2.085,2.085-2.811,4.739-1.621,5.928c1.189,1.189,3.844,0.464,5.928-1.621
						c2.085-2.085,2.811-4.739,1.621-5.928C660.929,151.462,658.275,152.188,656.19,154.272z"/>
				</g>
				<g>
					<path style="fill:#40649F;" d="M525.761,140.572c-2.085,2.085-2.81,4.739-1.621,5.928s3.844,0.464,5.928-1.621
						c2.085-2.085,2.811-4.739,1.621-5.928C530.5,137.761,527.846,138.487,525.761,140.572z"/>
				</g>
				<g>
					<path style="fill:#40649F;" d="M654.394,240.649c-2.085,2.085-2.81,4.739-1.621,5.928s3.844,0.464,5.928-1.621
						c2.085-2.085,2.811-4.739,1.621-5.928C659.133,237.839,656.478,238.564,654.394,240.649z"/>
				</g>
				<g>
					<path style="fill:#40649F;" d="M520.898,137.976c-0.243,2.938,0.92,5.432,2.596,5.571c1.677,0.138,3.232-2.131,3.475-5.07
						c0.243-2.938-0.92-5.433-2.596-5.571C522.696,132.768,521.14,135.038,520.898,137.976z"/>
				</g>
				<g>
					<path style="fill:#40649F;" d="M616.718,138.652c-0.581,2.89,0.284,5.502,1.933,5.834c1.649,0.332,3.457-1.743,4.039-4.633
						c0.581-2.89-0.284-5.502-1.933-5.834C619.108,133.687,617.3,135.761,616.718,138.652z"/>
				</g>
				<g>
					<path style="fill:#40649F;" d="M602.261,100.089c-0.581,2.89,0.284,5.502,1.933,5.834c1.649,0.332,3.457-1.743,4.039-4.633
						c0.581-2.89-0.284-5.503-1.933-5.834C604.651,95.124,602.843,97.199,602.261,100.089z"/>
				</g>
				<g>
					<path style="fill:#40649F;" d="M546.433,91.193c-0.581,2.89,0.284,5.502,1.933,5.834c1.649,0.332,3.457-1.742,4.039-4.633
						c0.581-2.89-0.284-5.502-1.933-5.834C548.823,86.229,547.015,88.303,546.433,91.193z"/>
				</g>
				<g>
					<path style="fill:#40649F;" d="M661.457,158.692c-2.923,0.385-5.115,2.049-4.895,3.717c0.22,1.668,2.768,2.707,5.691,2.322
						c2.923-0.385,5.114-2.049,4.895-3.717C666.928,159.346,664.38,158.306,661.457,158.692z"/>
				</g>
				<g>
					<path style="fill:#40649F;" d="M611.009,279.727c-1.461,2.561-1.46,5.313,0.001,6.146c1.461,0.833,3.83-0.567,5.29-3.128
						c1.461-2.561,1.46-5.313-0.001-6.146C614.838,275.765,612.47,277.166,611.009,279.727z"/>
				</g>
				<g>
					<path style="fill:#40649F;" d="M608.808,269.203c-2.623,1.345-4.128,3.65-3.36,5.146c0.768,1.497,3.517,1.619,6.14,0.274
						c2.623-1.345,4.128-3.65,3.36-5.146C614.18,267.98,611.431,267.857,608.808,269.203z"/>
				</g>
				<g>
					<path style="fill:#40649F;" d="M611.704,194.118c-2.623,1.345-4.128,3.649-3.36,5.146c0.768,1.497,3.517,1.619,6.14,0.274
						c2.623-1.345,4.128-3.649,3.36-5.146C617.076,192.895,614.327,192.772,611.704,194.118z"/>
				</g>
				<g>
					<path style="fill:#40649F;" d="M582.539,234.03c-1.071-2.747-3.209-4.479-4.777-3.868c-1.567,0.611-1.97,3.333-0.899,6.08
						c1.071,2.747,3.209,4.479,4.777,3.868C583.207,239.499,583.61,236.777,582.539,234.03z"/>
				</g>
				<g>
					<path style="fill:#40649F;" d="M558.734,165.702c-1.071-2.747-3.209-4.479-4.776-3.868c-1.567,0.611-1.97,3.333-0.899,6.08
						c1.071,2.747,3.209,4.479,4.777,3.868C559.402,171.171,559.805,168.449,558.734,165.702z"/>
				</g>
				<g>
					<path style="fill:#40649F;" d="M505.363,112.252c-2.658-1.276-5.403-1.081-6.131,0.436c-0.728,1.516,0.837,3.78,3.495,5.056
						c2.658,1.276,5.403,1.081,6.131-0.435C509.585,115.792,508.021,113.528,505.363,112.252z"/>
				</g>
				<g>
					<path style="fill:#40649F;" d="M630.289,109.399c-0.581,2.891,0.284,5.503,1.933,5.834c1.649,0.332,3.457-1.742,4.039-4.633
						c0.581-2.89-0.284-5.502-1.933-5.834C632.678,104.434,630.87,106.509,630.289,109.399z"/>
				</g>
				<g>
					<path style="fill:#40649F;" d="M668.663,206.362c-2.923,0.385-5.114,2.049-4.895,3.717c0.22,1.668,2.768,2.707,5.691,2.322
						c2.923-0.385,5.114-2.049,4.895-3.717C674.134,207.017,671.586,205.977,668.663,206.362z"/>
				</g>
			</g>
		</g>
		<g>
			<g>
				<g>
					<path style="fill:#6FA1D8;" d="M486.581,181.278c1.814-1.814,2.445-4.123,1.41-5.158c-1.035-1.035-3.344-0.403-5.158,1.41
						c-1.814,1.814-2.445,4.123-1.41,5.158C482.458,183.723,484.767,183.092,486.581,181.278z"/>
				</g>
				<g>
					<path style="fill:#6FA1D8;" d="M591.932,109.44c2.043,1.551,4.416,1.864,5.301,0.699c0.885-1.166-0.053-3.368-2.096-4.919
						c-2.043-1.551-4.416-1.864-5.302-0.699C588.951,105.686,589.889,107.889,591.932,109.44z"/>
				</g>
				<g>
					<path style="fill:#6FA1D8;" d="M517.562,245.343c1.814-1.814,2.445-4.123,1.41-5.158c-1.035-1.035-3.344-0.403-5.158,1.41
						c-1.814,1.814-2.445,4.123-1.41,5.158C513.439,247.788,515.748,247.157,517.562,245.343z"/>
				</g>
				<g>
					<path style="fill:#6FA1D8;" d="M516.03,241.616c2.543-0.335,4.45-1.783,4.258-3.234c-0.191-1.451-2.408-2.355-4.951-2.02
						c-2.543,0.335-4.45,1.783-4.258,3.234C511.27,241.046,513.487,241.951,516.03,241.616z"/>
				</g>
				<g>
					<path style="fill:#6FA1D8;" d="M648.077,223.084c-1.814-1.814-4.123-2.445-5.158-1.41c-1.035,1.035-0.403,3.344,1.41,5.158
						c1.814,1.814,4.123,2.445,5.158,1.41C650.523,227.207,649.891,224.898,648.077,223.084z"/>
				</g>
				<g>
					<path style="fill:#6FA1D8;" d="M644.963,227.882c-0.335-2.543-1.783-4.45-3.234-4.258c-1.451,0.191-2.355,2.408-2.02,4.951
						c0.335,2.543,1.783,4.45,3.234,4.258C644.394,232.642,645.298,230.425,644.963,227.882z"/>
				</g>
				<g>
					<path style="fill:#6FA1D8;" d="M630.294,255.227c-0.335-2.543-1.783-4.45-3.234-4.258c-1.451,0.191-2.356,2.408-2.021,4.951
						c0.335,2.543,1.783,4.45,3.234,4.258C629.724,259.986,630.629,257.77,630.294,255.227z"/>
				</g>
				<g>
					<path style="fill:#6FA1D8;" d="M656.776,145.597c-2.523-0.461-4.782,0.333-5.045,1.772c-0.263,1.44,1.57,2.98,4.093,3.441
						c2.523,0.461,4.782-0.333,5.045-1.772C661.132,147.598,659.299,146.057,656.776,145.597z"/>
				</g>
				<g>
					<path style="fill:#6FA1D8;" d="M490.363,171.399c1.814-1.814,2.445-4.123,1.41-5.158c-1.035-1.035-3.344-0.403-5.158,1.411
						c-1.814,1.814-2.445,4.123-1.41,5.158C486.24,173.844,488.549,173.212,490.363,171.399z"/>
				</g>
				<g>
					<path style="fill:#6FA1D8;" d="M653.589,214.653c-2.556-0.211-4.727,0.8-4.847,2.259c-0.12,1.458,1.854,2.812,4.411,3.023
						c2.556,0.211,4.727-0.8,4.847-2.259C658.12,216.217,656.145,214.864,653.589,214.653z"/>
				</g>
				<g>
					<path style="fill:#6FA1D8;" d="M646.12,136.486c-0.669,2.476-0.066,4.793,1.347,5.175c1.413,0.382,3.1-1.317,3.769-3.793
						c0.669-2.476,0.066-4.793-1.347-5.175C648.477,132.312,646.789,134.01,646.12,136.486z"/>
				</g>
				<g>
					<path style="fill:#6FA1D8;" d="M586.57,265.112c-1.958,1.657-2.779,3.906-1.834,5.023c0.945,1.117,3.299,0.68,5.257-0.977
						c1.958-1.657,2.779-3.906,1.834-5.023C590.883,263.018,588.529,263.456,586.57,265.112z"/>
				</g>
				<g>
					<path style="fill:#6FA1D8;" d="M525.11,110.794c0.136,2.562,1.43,4.575,2.892,4.498c1.461-0.077,2.536-2.217,2.401-4.778
						c-0.136-2.562-1.43-4.575-2.892-4.498C526.05,106.093,524.975,108.232,525.11,110.794z"/>
				</g>
				<g>
					<path style="fill:#6FA1D8;" d="M583.74,189.462c-1.958,1.657-2.779,3.906-1.834,5.023c0.945,1.117,3.299,0.68,5.257-0.977
						c1.958-1.657,2.779-3.906,1.834-5.023C588.052,187.368,585.699,187.805,583.74,189.462z"/>
				</g>
				<g>
					<path style="fill:#6FA1D8;" d="M656.943,151.314c-1.722-1.902-3.997-2.647-5.082-1.664c-1.085,0.982-0.568,3.32,1.153,5.221
						c1.722,1.902,3.997,2.646,5.082,1.664C659.181,155.553,658.664,153.216,656.943,151.314z"/>
				</g>
				<g>
					<path style="fill:#6FA1D8;" d="M499.253,214.201c1.814-1.814,2.445-4.123,1.411-5.158c-1.035-1.035-3.344-0.404-5.158,1.41
						c-1.814,1.814-2.445,4.123-1.411,5.158C495.13,216.647,497.44,216.015,499.253,214.201z"/>
				</g>
				<g>
					<path style="fill:#6FA1D8;" d="M612.73,226.121c1.814-1.814,2.445-4.123,1.41-5.158s-3.344-0.404-5.158,1.41
						c-1.814,1.814-2.445,4.123-1.41,5.158C608.607,228.567,610.917,227.935,612.73,226.121z"/>
				</g>
				<g>
					<path style="fill:#6FA1D8;" d="M500.816,139.051c1.814-1.814,2.445-4.123,1.41-5.158c-1.035-1.035-3.344-0.403-5.158,1.41
						c-1.814,1.814-2.445,4.123-1.41,5.158C496.693,141.496,499.003,140.865,500.816,139.051z"/>
				</g>
				<g>
					<path style="fill:#6FA1D8;" d="M616.962,228.379c0.211-2.556-0.8-4.727-2.259-4.847c-1.459-0.12-2.812,1.854-3.023,4.411
						c-0.211,2.556,0.8,4.726,2.259,4.847C615.397,232.91,616.751,230.936,616.962,228.379z"/>
				</g>
				<g>
					<path style="fill:#6FA1D8;" d="M546.173,261.342c0.506-2.515-0.247-4.787-1.682-5.076c-1.435-0.289-3.008,1.516-3.514,4.031
						c-0.506,2.515,0.247,4.787,1.682,5.076C544.094,265.662,545.667,263.857,546.173,261.342z"/>
				</g>
				<g>
					<path style="fill:#6FA1D8;" d="M594.745,269.082c0.506-2.515-0.247-4.787-1.682-5.076c-1.435-0.289-3.008,1.516-3.514,4.031
						c-0.506,2.515,0.247,4.787,1.682,5.076S594.239,271.597,594.745,269.082z"/>
				</g>
				<g>
					<path style="fill:#6FA1D8;" d="M494.671,210.356c2.543-0.335,4.45-1.783,4.258-3.234c-0.191-1.451-2.408-2.355-4.951-2.02
						c-2.543,0.335-4.45,1.783-4.258,3.234C489.911,209.787,492.128,210.691,494.671,210.356z"/>
				</g>
				<g>
					<path style="fill:#6FA1D8;" d="M538.562,105.052c1.271-2.228,1.27-4.622-0.001-5.347c-1.271-0.725-3.332,0.493-4.603,2.722
						c-1.271,2.228-1.27,4.622,0.001,5.347C535.231,108.499,537.292,107.28,538.562,105.052z"/>
				</g>
				<g>
					<path style="fill:#6FA1D8;" d="M540.477,114.208c2.282-1.171,3.591-3.175,2.923-4.477c-0.668-1.302-3.06-1.409-5.342-0.238
						c-2.283,1.171-3.591,3.175-2.924,4.477C535.803,115.272,538.195,115.379,540.477,114.208z"/>
				</g>
				<g>
					<path style="fill:#6FA1D8;" d="M625.197,105.694c0.932,2.39,2.792,3.897,4.156,3.365c1.364-0.532,1.714-2.9,0.782-5.29
						c-0.932-2.39-2.792-3.897-4.156-3.365C624.616,100.935,624.266,103.304,625.197,105.694z"/>
				</g>
				<g>
					<path style="fill:#6FA1D8;" d="M581.499,222.138c0.931,2.39,2.792,3.896,4.156,3.365c1.364-0.531,1.714-2.9,0.782-5.29
						c-0.932-2.39-2.792-3.897-4.156-3.365C580.918,217.38,580.568,219.748,581.499,222.138z"/>
				</g>
				<g>
					<path style="fill:#6FA1D8;" d="M630.478,250.76c2.312,1.11,4.7,0.941,5.334-0.379c0.633-1.319-0.728-3.289-3.04-4.399
						c-2.312-1.11-4.701-0.94-5.334,0.379C626.804,247.68,628.165,249.65,630.478,250.76z"/>
				</g>
				<g>
					<path style="fill:#6FA1D8;" d="M521.788,253.242c0.506-2.515-0.247-4.787-1.682-5.076c-1.435-0.289-3.008,1.516-3.514,4.031
						c-0.506,2.515,0.247,4.787,1.682,5.076S521.283,255.757,521.788,253.242z"/>
				</g>
				<g>
					<path style="fill:#6FA1D8;" d="M488.402,168.881c2.543-0.335,4.45-1.783,4.259-3.234c-0.191-1.451-2.408-2.355-4.951-2.02
						c-2.543,0.335-4.45,1.783-4.259,3.234C483.642,168.312,485.858,169.217,488.402,168.881z"/>
				</g>
			</g>
		</g>
		<g>
			<g>
				<path style="fill:#40649F;" d="M569.884,416.476L569.884,416.476c-1.222,0-2.213-1.189-2.213-2.655V218.069
					c0-1.466,0.991-2.655,2.213-2.655l0,0c1.222,0,2.213,1.189,2.213,2.655V413.82C572.097,415.287,571.106,416.476,569.884,416.476
					z"/>
			</g>
		</g>
		<g>
			<path style="fill:#40649F;" d="M566.965,250.083c-39.264,0-46.711-34.815-47.893-42.722c-0.128-0.854,0.501-1.636,1.362-1.705
				l0.984-0.078c0.789-0.063,1.494,0.497,1.599,1.281c0.99,7.346,7.518,40.013,45.302,39.209c0.818-0.017,1.507,0.609,1.543,1.427
				l0.044,1.011c0.036,0.831-0.613,1.542-1.445,1.56C567.956,250.077,567.458,250.083,566.965,250.083z"/>
		</g>
	</g>
	<g>
		<rect x="99.707" y="402.318" style="fill:#40649F;" width="449.57" height="16.6"/>
		<rect x="137.143" y="66.886" style="fill:#4EA2E5;" width="374.697" height="15.946"/>
		<g>
			<rect x="99.707" y="94.372" style="fill:#1C344D;" width="35.681" height="6.02"/>
			<rect x="99.707" y="133.046" style="fill:#1C344D;" width="35.681" height="6.02"/>
		</g>
		<rect x="122.141" y="97.732" style="fill:#F7F7FF;" width="404.702" height="289.327"/>
		<rect x="143.564" y="235.432" style="fill:#40649F;" width="107.056" height="160.286"/>
		<rect x="153.853" y="245.308" style="fill:#B0A8C6;" width="86.478" height="150.411"/>
		<rect x="265.404" y="235.432" style="fill:#40649F;" width="239.154" height="127.606"/>
		<rect x="153.853" y="245.308" style="fill:#E9E4F2;" width="86.478" height="120.244"/>
		<rect x="273.104" y="245.308" style="fill:#E9E4F2;" width="223.754" height="98.169"/>
		<g>
			<defs>
				<rect id="SVGID_1_" x="273.104" y="245.308" width="223.754" height="98.169"/>
			</defs>
			<clipPath id="SVGID_00000096738982634841553560000004251527332268979607_">
				<use xlink:href="#SVGID_1_"  style="overflow:visible;"/>
			</clipPath>
			<g style="clip-path:url(#SVGID_00000096738982634841553560000004251527332268979607_);">
				<g>
					<g>
						<g>
							<path style="fill:#CEC7DD;" d="M396.732,314.09c0,0-0.783,2.588-1.038,3.506c-0.255,0.917-0.969,2.676-1.351,2.574
								c-0.382-0.102,0.382-3.543,0.178-3.747c-0.204-0.204-1.835,1.555-1.988,2.013c-0.153,0.459,0.357,3.925,0,3.951
								c-0.357,0.025-1.249-1.759-1.478-3.747c-0.229-1.988,2.637-6.006,2.637-6.006L396.732,314.09z"/>
						</g>
						<g>
							<path style="fill:#CEC7DD;" d="M414.083,314.33c-0.159-8.403-6.246-9.142-6.246-9.142s-6.087-0.739-6.347,7.612
								c-0.2,6.408,1.595,23.881,2.441,31.668c0.239,2.196,1.795,3.999,3.644,4.224l0,0c1.849,0.225,3.425-1.198,3.69-3.333
								C412.203,337.789,414.205,320.777,414.083,314.33z"/>
						</g>
						<g>
							<path style="fill:#CEC7DD;" d="M428.436,314.33c-0.16-8.403-6.246-9.142-6.246-9.142s-6.087-0.739-6.347,7.612
								c-0.2,6.408,1.595,23.881,2.441,31.668c0.239,2.196,1.795,3.999,3.644,4.224l0,0c1.849,0.225,3.425-1.198,3.69-3.333
								C426.557,337.789,428.559,320.777,428.436,314.33z"/>
						</g>
						<g>
							<path style="fill:#CEC7DD;" d="M411.356,344.707c-0.166-3.503-3.577-3.503-3.577-3.503s-3.411,0-3.577,3.503
								c-0.166,3.503,1.714,30.24,1.714,30.24h4.416C410.331,374.947,411.522,348.21,411.356,344.707z"/>
						</g>
						<g>
							<path style="fill:#CEC7DD;" d="M406.067,374.947c0,0-7.682,3.431-8.594,3.868c-0.911,0.437-1.291,1.31,1.063,1.31h9.809
								c1.098,0,1.989-0.732,1.989-1.634v-3.544H406.067z"/>
						</g>
						<g>
							<path style="fill:#CEC7DD;" d="M425.145,342.325c-1.127-3.321-4.405-2.379-4.405-2.379s-3.278,0.942-2.47,4.355
								c0.807,3.413,9.998,28.591,9.998,28.591l4.244-1.219C432.51,371.672,426.272,345.646,425.145,342.325z"/>
						</g>
						<g>
							<path style="fill:#CEC7DD;" d="M423.634,273.066c0,0,4.591-0.727,4.851,5.497c0.228,5.451,0.773,13.488,0.911,16.8
								c0.046,1.106-0.987,2.105-2.369,2.295l0,0c-1.382,0.191-2.647-0.491-2.902-1.568c-0.764-3.226-2.5-11.094-3.673-16.419
								C419.116,273.596,423.634,273.066,423.634,273.066z"/>
						</g>
						<g>
							<path style="fill:#CEC7DD;" d="M422.539,272.431c-0.167-0.052-0.335-0.103-0.503-0.154c-4.846-1.449-9.874-1.449-14.72-0.002
								c-0.17,0.051-0.34,0.103-0.509,0.155c-0.585,0.183-1.034,0.809-1.149,1.603c-0.795,5.474-0.045,23.323,0.232,29.224
								c0.051,1.078,0.715,1.913,1.516,1.913h7.259h0.014h7.259c0.802,0,1.466-0.835,1.516-1.913
								c0.277-5.901,1.027-23.75,0.232-29.225C423.572,273.24,423.124,272.614,422.539,272.431z"/>
						</g>
						<g>
							<path style="fill:#CEC7DD;" d="M427.666,309.735c-1.445-7.795-4.203-10.51-4.203-10.51h-17.75c0,0-2.623,3.755-4.068,11.55
								c-0.21,1.132,0.294,2.274,1.278,2.905c1.938,1.243,5.712,3.006,11.537,3.006c5.825,0,9.599-1.763,11.537-3.006
								C426.981,313.049,427.876,310.867,427.666,309.735z"/>
						</g>
						<g>
							<g>
								<rect x="411.149" y="264.253" style="fill:#CEC7DD;" width="7.016" height="8.519"/>
							</g>
							<g>
								<path style="fill:#CEC7DD;" d="M417.966,267.184c0,0-2.033,2.578-6.817,2.578c0-3.179,0-3.663,0-3.663L417.966,267.184z"/>
							</g>
						</g>
						<g>
							<path style="fill:#CEC7DD;" d="M406.448,273.066c0,0-4.591-0.727-4.851,5.497c-0.228,5.451-0.773,13.488-0.911,16.8
								c-0.046,1.106,0.986,2.105,2.369,2.295l0,0c1.382,0.191,2.647-0.491,2.902-1.568c0.764-3.226,2.5-11.094,3.673-16.419
								C410.967,273.596,406.448,273.066,406.448,273.066z"/>
						</g>
						<g>
							<path style="fill:#CEC7DD;" d="M403.924,292.629c0,0-2.906-1.316-4.932,4.58c-1.774,5.164-4.533,12.75-5.612,15.888
								c-0.36,1.048,0.045,2.14,0.929,2.51l0,0c0.883,0.37,1.946-0.108,2.439-1.1c1.478-2.971,4.996-10.233,7.376-15.15
								C406.839,293.748,403.924,292.629,403.924,292.629z"/>
						</g>
						<g>
							<path style="fill:#CEC7DD;" d="M427.697,342.939c0-1.996,7.292-34.81-4.025-44.69h-17.997c0,0-4.99,6.768-4.99,22.546
								c0,15.777,0.914,52.939,0.914,52.939h10.89l2.663-57.056c0,0,0.949,20.084,1.804,27.212
								c0.855,7.128,7.846,29.003,7.846,29.003l9.642-2.581C434.444,370.311,427.697,344.935,427.697,342.939z"/>
						</g>
						<g>
							<path style="fill:#CEC7DD;" d="M411.149,270.58c0,0-7.202,0.61-9.55,4.023c-1.883,2.736-1.681,16.918-2.333,19.104
								c-0.653,2.186-8.669,17.232-5.885,19.391c2.785,2.158,4.295,2.905,5.042,2.158c0.747-0.747,2.661-5.581,2.661-5.581
								s13.117,1.711,21.242,1.711c8.126,0,9.456-4.269,8.791-7.267c-0.665-2.998-0.807-16.494-1.719-23.337
								c-0.913-6.843-0.805-7.666-11.233-10.201C414.105,271.942,411.149,270.58,411.149,270.58z"/>
						</g>
						<g>
							<path style="fill:#CEC7DD;" d="M429.387,296.242c0,0-0.92,3.055-6.694,0.701c-5.057-2.061-12.585-4.974-15.657-6.226
								c-1.026-0.418-1.582-1.442-1.279-2.35l0,0c0.303-0.908,1.362-1.394,2.433-1.113c3.21,0.841,10.994,2.969,16.262,4.411
								C430.462,293.31,429.387,296.242,429.387,296.242z"/>
						</g>
						<g>
							<path style="fill:#CEC7DD;" d="M408.295,293.113c-1.104-0.618-1.666-1.898-1.359-3.126c0.343-1.37,0.89-3.039,1.641-3.79
								c1.386-1.386,13.749,3.327,13.749,3.327s-0.514-12.12,2.475-16.752c4.415,1.26,4.51,3.351,5.65,13.806
								c1.141,10.455-0.941,13.496-5.65,13.496C421.147,300.074,412.145,295.267,408.295,293.113z"/>
						</g>
						<g>
							<path style="fill:#CEC7DD;" d="M405.887,374.537c0,0-6.012,1.85-8.381,2.627c-2.37,0.777-1.222,2.961-1.222,2.961h14.051
								v-5.178C410.334,374.947,408.344,375.946,405.887,374.537z"/>
						</g>
						<g>
							<path style="fill:#CEC7DD;" d="M428.397,372.487c0,0-6.488,5.358-7.249,6.022c-0.761,0.664-0.894,1.607,1.374,0.979
								l9.453-2.618c1.059-0.293,1.721-1.236,1.48-2.106l-0.946-3.416L428.397,372.487z"/>
						</g>
						<g>
							<path style="fill:#CEC7DD;" d="M428.114,372.14c0,0-5.3,3.387-7.376,4.769s-0.387,3.18-0.387,3.18l13.541-3.751l-1.382-4.991
								C432.509,371.348,430.858,372.842,428.114,372.14z"/>
						</g>
						<g>
							<path style="fill:#CEC7DD;" d="M401.234,289.74c0.026-0.352,2.686-0.298,2.686-0.298s-3.614-0.847-3.566-1.218
								c0.049-0.371,3.684,0.28,3.684,0.28s-3.799-1.423-3.677-1.779c0.122-0.356,3.789,0.788,3.789,0.788s-3.49-1.655-3.236-1.983
								c0.254-0.328,4.9,1.424,4.9,1.424s-2.305-1.623-2.257-1.97c0.034-0.241,0.651,0.077,1.656,0.511
								c1.847,0.798,3.234,2.006,3.234,2.006l-0.622,2.99C407.825,290.492,401.208,290.092,401.234,289.74z"/>
						</g>
						<g>
							<path style="fill:#CEC7DD;" d="M411.539,268.897h1.813c4.411,0,8.019-3.609,8.019-8.019v-3.651
								c0-2.764-2.261-5.025-5.025-5.025h-2.142c-2.764,0-5.025,2.261-5.025,5.025v9.31
								C409.179,267.835,410.241,268.897,411.539,268.897z"/>
						</g>
						<g>
							<path style="fill:#CEC7DD;" d="M409.179,260.55c0,0-3.163,4.013,0,4.013"/>
						</g>
						<g>
							<path style="fill:#CEC7DD;" d="M416.211,261.457c0,0-2.088-2.305-1.597-6.973c-4.053,0-5.132,1.042-5.132,1.042
								s-2.484-2.148,0.71-4.788c3.194-2.641,11.3-1.965,12.467,3.316c1.167,5.282,0.498,10.718-4.604,13.306
								C418.484,263.451,416.211,261.457,416.211,261.457z"/>
						</g>
						<g>
							<g>
								<line style="fill:#CEC7DD;" x1="416.751" y1="260.176" x2="413.927" y2="262.098"/>
							</g>
							<g>
								<line style="fill:#CEC7DD;" x1="418.23" y1="263.257" x2="414.769" y2="266.843"/>
							</g>
							<g>
								<path style="fill:#CEC7DD;" d="M414.369,261.748h-5.948c0,0-0.871,1.024-0.871,2.407s1.801,4.324,3.62,4.855
									c1.82,0.531,4.393-0.425,4.393-0.425L414.369,261.748z"/>
							</g>
						</g>
						<g>
							<path style="fill:#CEC7DD;" d="M415.362,261.386c-0.472,1.24-0.075,2.541,0.887,2.907c0.962,0.366,2.123-0.342,2.595-1.582
								s0.075-2.541-0.887-2.907C416.996,259.438,415.834,260.146,415.362,261.386z"/>
						</g>
					</g>
				</g>
				<g>
					<g>
						<g>
							<rect x="270.964" y="302.797" style="fill:#F2F0F7;" width="230.358" height="85.02"/>
						</g>
						<g>
							<rect x="270.964" y="365.552" style="fill:#B0A8C6;" width="230.358" height="22.266"/>
						</g>
						<g>
							<g>
								<path style="fill:#CEC7DD;" d="M323.62,311.066c0,0,0.795,2.287,0.747,3.2c-0.048,0.913-0.359,2.711-0.755,2.696
									c-0.395-0.015-0.402-3.4-0.646-3.548c-0.244-0.148-1.45,1.842-1.499,2.304s1.207,3.603,0.865,3.702
									c-0.343,0.099-1.603-1.385-2.262-3.2c-0.659-1.814,0.889-4.581,0.889-4.581L323.62,311.066z"/>
							</g>
							<g>
								<path style="fill:#CEC7DD;" d="M365.877,303.845c0,0,2.374,0.783,3.326,0.745c0.952-0.038,2.826-0.322,2.814-0.701
									c-0.012-0.38-3.537-0.416-3.689-0.651c-0.152-0.235,1.931-1.377,2.413-1.419c0.482-0.043,3.741,1.19,3.847,0.862
									c0.106-0.328-1.429-1.552-3.312-2.2c-1.884-0.648-4.778,0.814-4.778,0.814L365.877,303.845z"/>
							</g>
							<g>
								<path style="fill:#CEC7DD;" d="M319.631,289.264c0,0-3.178,0.268-2.049,6.156c0.988,5.157,2.308,12.804,2.909,15.937
									c0.201,1.046,1.09,1.769,2.041,1.662l0,0c0.951-0.107,1.642-1.008,1.585-2.07c-0.17-3.182-0.669-10.917-1.009-16.151
									C322.72,288.827,319.631,289.264,319.631,289.264z"/>
							</g>
							<g>
								<path style="fill:#CEC7DD;" d="M343.371,271.359c-0.167-0.05-0.335-0.099-0.503-0.148c-4.846-1.391-9.874-1.391-14.72-0.002
									c-0.17,0.049-0.34,0.099-0.509,0.149c-0.585,0.176-1.033,0.777-1.149,1.539c-0.795,5.257-0.045,22.396,0.232,28.063
									c0.051,1.035,0.714,1.837,1.516,1.837h7.259h0.014h7.259c0.802,0,1.465-0.802,1.516-1.837
									c0.277-5.666,1.027-22.806,0.232-28.063C344.405,272.135,343.956,271.534,343.371,271.359z"/>
							</g>
							<g>
								<g>
									<path style="fill:#CEC7DD;" d="M323.101,341.775c-0.001-0.038-0.002-0.078-0.002-0.115
										C322.987,341.386,323.076,341.761,323.101,341.775z"/>
								</g>
								<g>
									<path style="fill:#CEC7DD;" d="M348.544,310.587c-0.018-1.877-0.196-3.746-0.54-5.594
										c-0.003-0.016-0.005-0.028-0.007-0.035c-1.445-7.485-3.701-7.87-3.701-7.87H326.29c0,0-1.767,0.898-3.212,8.383
										l-0.187,1.383c-0.318,2.353-0.497,4.718-0.537,7.091c-0.131,7.885-0.058,21.562,0.748,27.829
										c0.105,5.801,1.953,28.025,1.953,28.025h7.434c0,0,1.353-25.674,1.164-29.038c-0.001-0.015-0.005-0.028-0.006-0.043
										c0.498-3.419,1.208-8.477,1.824-13.548c0.616,5.071,1.326,10.128,1.824,13.548c-0.001,0.015-0.005,0.027-0.005,0.043
										c-0.189,3.364,1.164,29.038,1.164,29.038h7.434c0,0,1.848-22.224,1.953-28.025
										C348.664,335.358,348.622,318.946,348.544,310.587z"/>
								</g>
							</g>
							<g>
								<g>
									<rect x="333.347" y="263.506" style="fill:#CEC7DD;" width="7.016" height="8.181"/>
								</g>
							</g>
							<g>
								<g>
									<path style="fill:#CEC7DD;" d="M329.218,260.452c0,1.064,0.697,1.927,1.557,1.927s1.557-0.863,1.557-1.927
										c0-1.064-0.697-1.927-1.557-1.927S329.218,259.388,329.218,260.452z"/>
								</g>
								<g>
									<path style="fill:#CEC7DD;" d="M341.41,260.452c0,1.064,0.697,1.927,1.557,1.927s1.557-0.863,1.557-1.927
										c0-1.064-0.697-1.927-1.557-1.927S341.41,259.388,341.41,260.452z"/>
								</g>
								<g>
									<path style="fill:#CEC7DD;" d="M336.748,267.596h0.245c3.286,0,5.974-2.688,5.974-5.974v-5.134
										c0-2.708-2.216-4.924-4.924-4.924h-2.344c-2.708,0-4.924,2.216-4.924,4.924v5.134
										C330.775,264.908,333.463,267.596,336.748,267.596z"/>
								</g>
							</g>
							<g>
								<path style="fill:#CEC7DD;" d="M328.214,272.264c0,0-4.292-1.713-6.005,4.038c-1.5,5.037-3.916,12.416-4.827,15.477
									c-0.304,1.022,0.465,2.187,1.764,2.676l0,0c1.299,0.489,2.688,0.138,3.189-0.81c1.499-2.839,5.033-9.792,7.422-14.499
									C332.482,273.777,328.214,272.264,328.214,272.264z"/>
							</g>
							<g>
								<path style="fill:#CEC7DD;" d="M344.644,270.753c0,0-4.514,1.065-2.341,6.671c1.902,4.91,4.514,12.227,5.671,15.211
									c0.386,0.996,1.725,1.496,3.073,1.151l0,0c1.348-0.346,2.249-1.42,2.067-2.468c-0.546-3.14-1.994-10.751-2.977-15.901
									C349.015,269.541,344.644,270.753,344.644,270.753z"/>
							</g>
							<g>
								<path style="fill:#CEC7DD;" d="M348.297,289.839c0,0-2.542,2.15,2.752,5.313c4.636,2.77,11.724,6.653,14.542,8.336
									c0.941,0.562,2.096,0.417,2.654-0.33l0,0c0.558-0.747,0.329-1.844-0.527-2.519c-2.565-2.021-8.857-6.874-13.116-10.157
									C349.741,286.736,348.297,289.839,348.297,289.839z"/>
							</g>
							<g>
								<path style="fill:#CEC7DD;" d="M333.347,269.813c0,0-7.581,1.562-10.452,2.849c-2.871,1.286-5.555,15.071-5.555,15.071
									l6.78,2.9l-2.791,18.208c-0.34,2.218,1.257,4.293,3.57,4.603c4.841,0.649,13.288,1.319,22.036-0.15
									c2.111-0.354,3.577-2.227,3.438-4.28c-1.102-16.358-3.361-30.077-3.361-30.077l0.854,11.632l6.567-2.408l-2.723-15.604
									c-0.697-1.487-2.14-2.528-3.822-2.755l-7.452-1.006C340.436,268.796,337.291,271.467,333.347,269.813z"/>
							</g>
							<g>
								<path style="fill:#CEC7DD;" d="M327.474,369.8c0,0-9.23,0.006-9.23,4.973c9.171,0,14.454,0,14.454,0l-0.209-4.973"/>
							</g>
							<g>
								<path style="fill:#CEC7DD;" d="M343.466,369.8c0,0,9.23,0.006,9.23,4.973c-9.171,0-14.454,0-14.454,0l0.209-4.973"/>
							</g>
							<g>
								<path style="fill:#CEC7DD;" d="M336.551,268.294c0,0,4.446,0.206,6.435-4.173c1.989-4.379,2.925-8.739-0.694-12.214
									c-3.619-3.475-8.691-2.262-10.515-0.511c-1.824,1.752-3.472,4.173-2.648,8.809
									C329.952,264.843,333.171,268.294,336.551,268.294z"/>
							</g>
						</g>
					</g>
				</g>
				<rect x="250.62" y="266.843" style="fill:#CEC7DD;" width="54.178" height="98.515"/>
				<rect x="447.143" y="276.334" style="fill:#CEC7DD;" width="54.178" height="89.024"/>
			</g>
		</g>
		<rect x="117.547" y="385.334" style="fill:#5C8BC6;" width="413.889" height="16.984"/>
		<rect x="149.985" y="385.334" style="fill:#9C95B5;" width="94.214" height="16.984"/>
		<rect x="143.564" y="402.318" style="fill:#8A83A5;" width="107.056" height="16.6"/>
		<g>
			<rect x="88.482" y="421.973" style="fill:#338AC4;" width="4.114" height="6.929"/>
			<rect x="125.074" y="421.973" style="fill:#338AC4;" width="4.114" height="6.929"/>
			<rect x="86.425" y="358.75" style="fill:#4EA2E5;" width="44.819" height="66.039"/>
			<rect x="88.807" y="361.132" style="fill:#1C344D;" width="40.056" height="61.275"/>
		</g>
		<rect x="153.853" y="263.146" style="fill:#CEC7DD;" width="70.003" height="102.406"/>
		<polygon style="fill:#FFFFFF;" points="164.684,297.153 188.946,289.84 188.946,265.578 164.684,272.891 		"/>
		<g>
			<defs>
				<polygon id="SVGID_00000054263587517236747480000010157173982277545890_" points="240.331,245.308 153.853,245.308 
					153.853,385.334 240.331,385.466 				"/>
			</defs>
			<clipPath id="SVGID_00000026852958982622475950000013773379679710203783_">
				<use xlink:href="#SVGID_00000054263587517236747480000010157173982277545890_"  style="overflow:visible;"/>
			</clipPath>
			<path style="clip-path:url(#SVGID_00000026852958982622475950000013773379679710203783_);fill:#1C344D;" d="M194.164,240.017
				v127.968l-34.697,10.594V250.611l37.109-10.594 M199.777,233.13l-45.924,12.311v140.026l45.924-12.31V233.13L199.777,233.13z"/>
			<path style="clip-path:url(#SVGID_00000026852958982622475950000013773379679710203783_);fill:#1C344D;" d="M154.993,315.845
				L154.993,315.845c0,1.582,0.681,2.66,1.521,2.408l40.602-12.183c0.84-0.252,1.521-1.739,1.521-3.322l0,0
				c0-1.582-0.681-2.66-1.521-2.408l-40.602,12.183C155.674,312.776,154.993,314.263,154.993,315.845z"/>
		</g>
		<g>
			<path style="fill:#338AC4;" d="M83.615,206.63v29.365c17.106,7.252,36.422,7.252,53.528,0h0V206.63H83.615z"/>
			<path style="fill:#338AC4;" d="M244.199,206.63v29.365l-0.629,0.266c-16.704,7.082-35.567,7.082-52.271,0l-0.629-0.266V206.63"/>
			<path style="fill:#338AC4;" d="M351.256,206.63v29.365l0,0c-17.106,7.252-36.422,7.252-53.528,0l0,0V206.63"/>
			<path style="fill:#338AC4;" d="M458.312,206.63v29.365l0,0c-17.106,7.252-36.422,7.252-53.528,0l0,0V206.63"/>
			<path style="fill:#338AC4;" d="M565.369,206.63v29.365h0c-17.106,7.252-36.422,7.252-53.528,0l0,0V206.63"/>
			<path style="fill:#E9E4F2;" d="M190.671,206.63v29.365l0,0c-17.106,7.252-36.422,7.252-53.528,0l0,0V206.63"/>
			<path style="fill:#E9E4F2;" d="M297.728,206.63v29.365l0,0c-16.152,7.25-34.559,7.619-50.988,1.02l-2.54-1.02V206.63"/>
			<path style="fill:#E9E4F2;" d="M404.784,206.63v29.365l0,0c-17.106,7.252-36.422,7.252-53.528,0l0,0V206.63"/>
			<path style="fill:#E9E4F2;" d="M511.84,206.63v29.365h0c-17.106,7.252-36.422,7.252-53.528,0l0,0V206.63"/>
			<polyline style="fill:#4EA2E5;" points="83.615,206.63 122.141,151.305 167.108,151.305 137.143,206.63 			"/>
			<polyline style="fill:#4EA2E5;" points="511.84,206.63 481.876,151.305 526.843,151.305 565.369,206.63 			"/>
			<polyline style="fill:#F2F0F7;" points="137.143,206.63 167.108,151.305 212.075,151.305 190.671,206.63 			"/>
			<polyline style="fill:#4EA2E5;" points="190.671,206.63 212.075,151.305 257.041,151.305 244.199,206.63 			"/>
			<polyline style="fill:#F2F0F7;" points="244.199,206.63 257.041,151.305 302.008,151.305 297.728,206.63 			"/>
			<polyline style="fill:#4EA2E5;" points="297.728,206.63 302.008,151.305 346.975,151.305 351.256,206.63 			"/>
			<polyline style="fill:#F2F0F7;" points="351.256,206.63 346.975,151.305 391.942,151.305 404.784,206.63 			"/>
			<polyline style="fill:#4EA2E5;" points="404.784,206.63 391.942,151.305 436.909,151.305 458.312,206.63 			"/>
			<polyline style="fill:#F2F0F7;" points="458.312,206.63 436.909,151.305 481.876,151.305 511.84,206.63 			"/>
		</g>
		<rect x="122.141" y="136.405" style="fill:#5C8BC6;" width="404.702" height="14.9"/>
		<path style="fill:#FFFFFF;" d="M56.075,148.686H97.66c6.172,0,11.175-5.003,11.175-11.175V95.926
			c0-6.172-5.003-11.175-11.175-11.175H56.075c-6.172,0-11.175,5.003-11.175,11.175v41.585
			C44.9,143.683,49.903,148.686,56.075,148.686z"/>
		<path style="fill:#1C344D;" d="M57.975,144.17H95.76c4.707,0,8.559-3.851,8.559-8.559V97.826c0-4.707-3.851-8.559-8.559-8.559
			H57.975c-4.707,0-8.559,3.851-8.559,8.559v37.785C49.416,140.319,53.268,144.17,57.975,144.17z"/>
		<rect x="122.141" y="82.832" style="fill:#5C8BC6;" width="404.702" height="14.9"/>
	</g>
	<g>
		<g>
			<ellipse style="fill:#DF5719;" cx="230.262" cy="442.4" rx="32.252" ry="7.673"/>
			<g>
				<path style="fill:#F26B51;" d="M216.633,370.716c0,0,0.861,2.579,0.809,3.609c-0.052,1.03-0.389,3.057-0.817,3.04
					c-0.428-0.017-0.436-3.834-0.699-4.001c-0.264-0.167-1.571,2.078-1.623,2.599c-0.053,0.521,1.307,4.063,0.936,4.174
					c-0.371,0.112-1.736-1.562-2.45-3.608s0.963-5.166,0.963-5.166L216.633,370.716z"/>
				<path style="fill:#F26B51;" d="M212.313,346.129c0,0-3.441,0.302-2.219,6.943c1.07,5.816,2.499,14.439,3.15,17.973
					c0.217,1.18,1.18,1.995,2.21,1.874h0c1.03-0.121,1.778-1.136,1.717-2.335c-0.184-3.589-0.725-12.311-1.093-18.214
					C215.658,345.635,212.313,346.129,212.313,346.129z"/>
				<path style="fill:#F26B51;" d="M238.022,325.935c-0.181-0.056-0.362-0.112-0.544-0.167c-5.248-1.569-10.693-1.569-15.941-0.002
					c-0.184,0.055-0.368,0.111-0.551,0.168c-0.633,0.198-1.119,0.876-1.244,1.736c-0.861,5.928-0.049,25.258,0.251,31.648
					c0.055,1.167,0.774,2.072,1.642,2.072h7.861h0.015h7.861c0.868,0,1.587-0.904,1.642-2.072c0.301-6.39,1.113-25.72,0.251-31.648
					C239.141,326.811,238.656,326.133,238.022,325.935z"/>
				<g>
					<path style="fill:#4EA2E5;" d="M216.071,405.348c-0.001-0.043-0.002-0.088-0.002-0.129
						C215.948,404.909,216.044,405.332,216.071,405.348z"/>
					<path style="fill:#1C344D;" d="M243.623,370.175c-0.019-2.117-0.212-4.225-0.585-6.309c-0.003-0.018-0.006-0.031-0.007-0.04
						c-1.565-8.441-4.008-8.875-4.008-8.875h-19.499c0,0-1.914,1.013-3.479,9.454l-0.203,1.56c-0.345,2.654-0.539,5.321-0.581,7.997
						c-0.142,8.892-0.063,24.316,0.81,31.385c0.114,6.543,2.115,31.605,2.115,31.605h8.051c0,0,1.465-28.954,1.26-32.748
						c-0.001-0.017-0.005-0.031-0.006-0.048c0.539-3.856,1.308-9.56,1.975-15.278c0.667,5.719,1.436,11.422,1.975,15.278
						c-0.001,0.017-0.005,0.031-0.006,0.048c-0.205,3.794,1.26,32.748,1.26,32.748h8.051c0,0,2.001-25.063,2.115-31.605
						C243.754,398.111,243.709,379.603,243.623,370.175z"/>
				</g>
				<g>
					<rect x="227.166" y="317.079" style="fill:#F26B51;" width="7.598" height="9.226"/>
				</g>
				<g>
					<path style="fill:#F26B51;" d="M222.695,313.635c0,1.2,0.755,2.173,1.686,2.173c0.931,0,1.686-0.973,1.686-2.173
						s-0.755-2.173-1.686-2.173C223.45,311.462,222.695,312.435,222.695,313.635z"/>
					<path style="fill:#F26B51;" d="M235.898,313.635c0,1.2,0.755,2.173,1.686,2.173c0.931,0,1.686-0.973,1.686-2.173
						s-0.755-2.173-1.686-2.173C236.653,311.462,235.898,312.435,235.898,313.635z"/>
					<path style="fill:#F26B51;" d="M230.983,321.692L230.983,321.692c3.631,0,6.602-2.971,6.602-6.602v-6.036
						c0-2.993-2.449-5.442-5.442-5.442h-2.32c-2.993,0-5.442,2.449-5.442,5.442v6.036
						C224.381,318.722,227.352,321.692,230.983,321.692z"/>
				</g>
				<path style="fill:#F26B51;" d="M221.608,326.956c0,0-4.648-1.932-6.503,4.554c-1.625,5.68-4.241,14.003-5.228,17.454
					c-0.33,1.153,0.504,2.466,1.91,3.018h0c1.407,0.552,2.911,0.156,3.453-0.914c1.624-3.202,5.451-11.043,8.038-16.352
					C226.23,328.662,221.608,326.956,221.608,326.956z"/>
				<path style="fill:#F26B51;" d="M231.886,330.135c0,0,1.921,4.653,7.819,1.378c5.165-2.868,12.9-6.903,16.039-8.646
					c1.048-0.582,1.388-2.1,0.783-3.485l0,0c-0.604-1.385-1.948-2.168-3.088-1.796c-3.412,1.116-11.663,3.954-17.246,5.879
					C229.824,325.661,231.886,330.135,231.886,330.135z"/>
				<path style="fill:#F26B51;" d="M256.098,322.176c0,0,2.863-2.293-2.696-6.124c-4.869-3.355-12.331-8.089-15.29-10.128
					c-0.988-0.681-2.245-0.576-2.888,0.237l0,0c-0.643,0.814-0.454,2.061,0.437,2.865c2.668,2.407,9.218,8.193,13.652,12.107
					C254.371,325.598,256.098,322.176,256.098,322.176z"/>
				<path style="fill:#4EA2E5;" d="M227.166,324.192c0,0-8.21,1.762-11.319,3.213c-3.109,1.451-6.016,16.997-6.016,16.997
					l7.342,3.271l-3.022,20.534c-0.37,2.512,1.375,4.844,3.89,5.194c5.247,0.731,14.38,1.481,23.839-0.173
					c2.283-0.399,3.875-2.487,3.725-4.8c-1.193-18.459-3.641-33.947-3.641-33.947l7.669-3.864l-3.271-10.645l-11.52,3.072
					C234.843,323.046,231.438,326.057,227.166,324.192z"/>
				<path style="fill:#1C344D;" d="M220.806,436.953c0,0-9.996,0.007-9.996,5.608c9.932,0,15.652,0,15.652,0l-0.226-5.608"/>
				<path style="fill:#1C344D;" d="M238.125,436.953c0,0,9.996,0.007,9.996,5.608c-9.932,0-15.652,0-15.652,0l0.226-5.608"/>
				<path style="fill:#1C344D;" d="M230.636,322.479c0,0,4.815,0.232,6.968-4.706c2.153-4.939,3.167-9.856-0.752-13.775
					c-3.919-3.919-9.412-2.551-11.387-0.576c-1.975,1.975-3.76,4.706-2.868,9.935C223.49,318.587,226.976,322.479,230.636,322.479z"
					/>
			</g>
		</g>
		<g>
			<ellipse style="fill:#DF5719;" cx="345.104" cy="442.4" rx="32.252" ry="7.673"/>
			<g>
				<path style="fill:#F26B51;" d="M348.628,378c1.367-8.466-4.61-10.314-4.61-10.314s-6.124-3.563-7.903,4.776
					c-1.365,6.398-2.592,25.982-3.157,33.954c-0.16,2.249,1.076,4.341,2.892,4.903l0,0c1.816,0.562,3.657-0.58,4.31-2.676
					C342.477,401.213,347.579,384.495,348.628,378z"/>
				<path style="fill:#F26B51;" d="M340.369,408.005c0.47-3.548-2.955-4.167-2.955-4.167s-3.424-0.62-4.228,2.867
					c-0.804,3.487-3.775,30.674-3.775,30.674l4.434,0.802C333.845,438.182,339.899,411.553,340.369,408.005z"/>
				<path style="fill:#F26B51;" d="M329.66,437.277c0,0-7.839,3.501-8.769,3.947c-0.93,0.446-1.317,1.337,1.085,1.337h10.009
					c1.121,0,2.029-0.746,2.029-1.667v-3.616H329.66z"/>
				<path style="fill:#F26B51;" d="M363.439,375.424c-0.163-8.574-6.373-9.328-6.373-9.328s-6.211-0.754-6.476,7.767
					c-0.204,6.538,1.627,24.368,2.491,32.313c0.244,2.241,1.832,4.08,3.719,4.31l0,0c1.887,0.229,3.495-1.222,3.765-3.401
					C361.521,399.362,363.564,382.003,363.439,375.424z"/>
				<path style="fill:#F26B51;" d="M360.656,406.421c-0.17-3.575-3.65-3.575-3.65-3.575s-3.48,0-3.65,3.575
					c-0.17,3.574,1.749,30.856,1.749,30.856h4.506C359.611,437.277,360.826,409.995,360.656,406.421z"/>
				<path style="fill:#F26B51;" d="M353.155,332.103c0,0,5.834-1.324,10.549,2.938c4.13,3.733,10.37,9.084,12.879,11.352
					c0.838,0.757,0.826,2.223-0.023,3.366l0,0c-0.85,1.142-2.25,1.575-3.217,0.99c-2.894-1.751-9.862-6.114-14.577-9.069
					C353.389,338.308,353.155,332.103,353.155,332.103z"/>
				<path style="fill:#F26B51;" d="M357.477,332.672c-0.17-0.053-0.341-0.106-0.513-0.157c-4.945-1.478-10.075-1.478-15.02-0.002
					c-0.174,0.052-0.347,0.105-0.519,0.159c-0.597,0.187-1.055,0.825-1.172,1.635c-0.811,5.586-0.046,23.799,0.237,29.82
					c0.052,1.1,0.729,1.952,1.547,1.952h7.407h0.014h7.407c0.818,0,1.495-0.852,1.547-1.952c0.283-6.021,1.048-24.234,0.237-29.82
					C358.532,333.497,358.074,332.858,357.477,332.672z"/>
				<path style="fill:#F26B51;" d="M362.709,370.736c-1.474-7.954-4.288-10.724-4.288-10.724h-18.111c0,0-2.677,3.831-4.151,11.785
					c-0.214,1.155,0.3,2.32,1.304,2.965c1.977,1.268,5.828,3.067,11.772,3.067s9.795-1.799,11.772-3.067
					C362.01,374.117,362.923,371.891,362.709,370.736z"/>
				<g>
					<rect x="347.248" y="324.327" style="fill:#F26B51;" width="7.159" height="8.693"/>
					<path style="fill:#F26B51;" d="M354.204,327.318c0,0-2.074,2.63-6.956,2.63c0-3.243,0-3.738,0-3.738L354.204,327.318z"/>
				</g>
				<g>
					<path style="fill:#F26B51;" d="M343.035,321.082c0,1.131,0.711,2.048,1.589,2.048c0.877,0,1.589-0.917,1.589-2.048
						c0-1.131-0.711-2.048-1.589-2.048C343.747,319.034,343.035,319.951,343.035,321.082z"/>
					<path style="fill:#F26B51;" d="M355.476,321.082c0,1.131,0.711,2.048,1.589,2.048c0.877,0,1.589-0.917,1.589-2.048
						c0-1.131-0.711-2.048-1.589-2.048C356.188,319.034,355.476,319.951,355.476,321.082z"/>
					<path style="fill:#F26B51;" d="M350.844,328.674L350.844,328.674c3.421,0,6.22-2.799,6.22-6.22v-5.688
						c0-2.82-2.307-5.127-5.127-5.127h-2.186c-2.82,0-5.127,2.307-5.127,5.127v5.688
						C344.624,325.875,347.423,328.674,350.844,328.674z"/>
				</g>
				<path style="fill:#F26B51;" d="M343.339,332.139c0,0-6.965,0.438-7.23,6.789c-0.232,5.562-0.789,13.763-0.93,17.143
					c-0.047,1.129,1.007,2.148,2.417,2.342l0,0c1.41,0.195,2.701-0.501,2.961-1.6c0.779-3.292,2.551-11.32,3.747-16.754
					C345.669,333.86,343.339,332.139,343.339,332.139z"/>
				<path style="fill:#F26B51;" d="M338.483,353.282c0,0-2.965-1.343-5.032,4.673c-1.811,5.269-4.376,14.115-5.476,17.317
					c-0.367,1.069-0.204,1.079,0.698,1.456l0,0c0.901,0.377,1.985-0.111,2.489-1.123c1.508-3.031,5.098-10.442,7.526-15.458
					C341.457,354.423,338.483,353.282,338.483,353.282z"/>
				<path style="fill:#F26B51;" d="M376.901,347.119c0,0,1.884,2.655-3.629,5.831c-4.828,2.781-11.89,7.02-14.824,8.71
					c-0.98,0.564-2.152,0.371-2.694-0.442l0,0c-0.542-0.813-0.27-1.97,0.628-2.657c2.688-2.058,9.279-6.995,13.741-10.334
					C375.213,344.417,376.901,347.119,376.901,347.119z"/>
				<path style="fill:#1C344D;" d="M359.315,342.023c0,0-9.845-2.677-19.42-0.343c-3.038,2.155-0.441,9.329-0.441,9.329v9.003
					c0,0-4.477,9.344-7.074,33.88c-2.597,24.536-3.94,41.73-3.94,41.73l8.418,1.655l12.377-59.448l3.458,58.868h8.344
					c0,0,1.057-27.671,2.409-40.566c1.352-12.895,3.143-27.308-4.11-37.116C358.528,351.804,359.315,342.023,359.315,342.023z"/>
				<path style="fill:#4EA2E5;" d="M326.768,438.571c0,0,0.021,0.022,0.055,0.061c0.248,0.284,1.201,1.479,0.132,2
					c-1.218,0.593-2.291-1.118-2.291-1.118s-3.486,1.243-4.298,1.555c-0.812,0.312-0.531,1.492-0.531,1.492h14.178
					c0,0,0.939-1.492,0-3.99c-2.031,0-4.603,1.686-4.603,1.686l-1.647-2.132"/>
				<path style="fill:#F26B51;" d="M355.233,437.277c0,0-7.839,3.501-8.769,3.947c-0.93,0.446-1.317,1.337,1.085,1.337h10.009
					c1.121,0,2.029-0.746,2.029-1.667v-3.616H355.233z"/>
				<path style="fill:#4EA2E5;" d="M352.341,438.571c0,0,0.021,0.022,0.055,0.061c0.248,0.284,1.201,1.479,0.132,2
					c-1.218,0.593-2.291-1.118-2.291-1.118s-3.486,1.243-4.298,1.555c-0.812,0.312-0.531,1.492-0.531,1.492h14.178
					c0,0,0.939-1.492,0-3.99c-2.031,0-4.603,1.686-4.603,1.686l-1.647-2.132"/>
				<path style="fill:#1C344D;" d="M344.624,320.826c0,0-1.982-3.075-0.406-6.689c1.576-3.613-0.923-4.959,3.306-8.342
					c4.229-3.383,15.507,3.421,9.541,15.031c-0.469-4.152-4.544-0.923-7.081-6.843C346.14,313.984,343.915,317.443,344.624,320.826z
					"/>
				<path style="fill:#F26B51;" d="M330.757,375.272c0,0,0.26,2.549,0,3.485c-0.26,0.936-0.988,2.731-1.378,2.627
					c-0.39-0.104,0.39-3.615,0.182-3.823c-0.208-0.208-1.872,1.586-2.029,2.055c-0.156,0.468,0.364,4.005,0,4.031
					s-1.274-1.794-1.508-3.823c-0.234-2.029,1.951-4.551,1.951-4.551H330.757z"/>
				<path style="fill:#F26B51;" d="M358.197,363.732c-0.288-0.217,1.229-2.468,1.229-2.468s-2.725,2.63-3.016,2.384
					s2.278-3.004,2.278-3.004s-3.321,2.47-3.559,2.169c-0.238-0.301,2.771-2.813,2.771-2.813s-3.349,2.077-3.49,1.678
					c-0.141-0.399,3.931-3.414,3.931-3.414s-2.667,1.079-2.937,0.846c-0.188-0.162,0.426-0.516,1.354-1.137
					c0.768-0.514,1.556-0.903,2.19-1.174c0.769-0.33,1.659-0.155,2.255,0.433l0,0c0.739,0.729,0.824,1.891,0.198,2.719
					C360.195,361.549,358.387,363.875,358.197,363.732z"/>
				<g>
					<path style="fill:#FFFFFF;" d="M347.059,321.406h7.763l0.952,4.569c0,0-1.623,3.006-5.092,3.006
						c-3.469,0-5.092-2.93-5.092-2.93L347.059,321.406z"/>
					
						<line style="fill:none;stroke:#FFFFFF;stroke-width:0.4938;stroke-miterlimit:10;" x1="344.102" y1="319.208" x2="347.728" y2="322.075"/>
					
						<line style="fill:none;stroke:#FFFFFF;stroke-width:0.4938;stroke-miterlimit:10;" x1="357.587" y1="319.208" x2="353.961" y2="322.075"/>
				</g>
			</g>
		</g>
		<g>
			<ellipse style="fill:#DF5719;" cx="689.63" cy="442.4" rx="32.252" ry="7.673"/>
			<g>
				<path style="fill:#1C344D;" d="M670.302,310.755c2.252-5.67,6.757-5.338,7.504-5.242c0.746-0.097,5.252-0.428,7.504,5.242
					c2.021,5.088,2.994,7.152,1.304,8.697c-0.71,0.649-1.666,0.96-2.627,0.96h-6.072c-0.138,0-0.217,0-0.217,0h-6.072
					c-0.961,0-1.917-0.311-2.627-0.96C667.307,317.907,668.281,315.843,670.302,310.755z"/>
				<path style="fill:#F26B51;" d="M680.233,375.616c-1.417-8.778,4.78-10.695,4.78-10.695s6.354-3.809,8.199,4.837
					c1.416,6.634,2.683,27.056,3.269,35.322c0.165,2.332-1.115,4.502-2.998,5.084l0,0c-1.883,0.582-3.792-0.601-4.47-2.774
					C686.61,399.686,681.32,382.352,680.233,375.616z"/>
				<path style="fill:#F26B51;" d="M688.797,406.729c-0.487-3.679,3.064-4.321,3.064-4.321s3.551-0.643,4.384,2.973
					c0.833,3.616,3.914,31.807,3.914,31.807l-4.598,0.832C695.562,438.02,689.284,410.408,688.797,406.729z"/>
				<path style="fill:#F26B51;" d="M699.901,437.082c0,0,8.128,3.631,9.092,4.093c0.964,0.462,1.366,1.386-1.125,1.386H697.49
					c-1.162,0-2.104-0.774-2.104-1.729v-3.75H699.901z"/>
				<path style="fill:#F26B51;" d="M664.875,372.946c0.169-8.89,6.609-9.673,6.609-9.673s6.44-0.782,6.715,8.054
					c0.211,6.78-1.687,25.267-2.582,33.506c-0.253,2.324-1.899,4.231-3.856,4.469l0,0c-1.957,0.238-3.624-1.267-3.904-3.526
					C666.864,397.767,664.745,379.767,664.875,372.946z"/>
				<path style="fill:#F26B51;" d="M667.76,405.087c0.176-3.707,3.785-3.707,3.785-3.707s3.609,0,3.785,3.707
					c0.176,3.707-1.978,32.417-1.978,32.417l-4.507-0.422C668.845,437.082,667.584,408.793,667.76,405.087z"/>
				<path style="fill:#F26B51;" d="M672.345,330.656c0,0-2.856-4.004-7.746,0.416c-4.282,3.87-10.752,9.419-13.354,11.771
					c-0.869,0.785-0.857,2.305,0.024,3.49l0,0c0.881,1.185,2.333,1.633,3.335,1.027c3.001-1.816,10.227-6.34,15.115-9.404
					C675.296,334.459,672.345,330.656,672.345,330.656z"/>
				<path style="fill:#F26B51;" d="M671.057,328.615c0.177-0.055,0.354-0.109,0.532-0.163c5.127-1.533,10.447-1.533,15.575-0.002
					c0.18,0.054,0.36,0.109,0.538,0.164c0.619,0.193,1.094,0.856,1.215,1.696c0.841,5.792,0.048,24.677-0.246,30.921
					c-0.054,1.141-0.756,2.024-1.604,2.024h-7.681h-0.015h-7.68c-0.848,0-1.551-0.884-1.604-2.024
					c-0.294-6.243-1.087-25.129-0.246-30.921C669.963,329.471,670.438,328.808,671.057,328.615z"/>
				<path style="fill:#F26B51;" d="M665.632,368.085c1.529-8.247,4.447-11.12,4.447-11.12h19.051c0,0,2.504,3.973,4.033,12.22
					c0.222,1.198-0.311,2.406-1.352,3.074c-2.05,1.315-6.043,3.18-12.206,3.18s-10.156-1.865-12.206-3.18
					C666.357,371.591,665.41,369.283,665.632,368.085z"/>
				<g>
					
						<rect x="674.24" y="319.963" transform="matrix(-1 -1.224647e-16 1.224647e-16 -1 1355.9032 648.9392)" style="fill:#F26B51;" width="7.423" height="9.014"/>
					<path style="fill:#F26B51;" d="M674.45,323.064c0,0,2.151,2.728,7.213,2.728c0-3.363,0-3.876,0-3.876L674.45,323.064z"/>
				</g>
				<g>
					<ellipse style="fill:#F26B51;" cx="684.385" cy="316.598" rx="1.647" ry="2.123"/>
					<ellipse style="fill:#F26B51;" cx="671.484" cy="316.598" rx="1.647" ry="2.123"/>
					<path style="fill:#F26B51;" d="M677.935,324.47L677.935,324.47c-3.548,0-6.45-2.903-6.45-6.45v-5.898
						c0-2.924,2.393-5.317,5.317-5.317h2.267c2.924,0,5.317,2.392,5.317,5.317v5.898C684.385,321.567,681.482,324.47,677.935,324.47
						z"/>
				</g>
				<path style="fill:#F26B51;" d="M685.679,328.21c0,0,4.654-1.589,6.052,4.852c1.224,5.641,3.248,13.92,3.992,17.348
					c0.248,1.145-0.647,2.373-2.053,2.822l0,0c-1.406,0.449-2.848-0.033-3.309-1.109c-1.38-3.224-4.615-11.112-6.802-16.451
					C681.065,329.581,685.679,328.21,685.679,328.21z"/>
				<path style="fill:#1C344D;" d="M688.99,351.954c0,0,5.322,12.855,6.493,29.592c-10.042,1.953-15.461,1.674-15.461,1.674
					l-0.885-7.029l-0.669,7.043c0,0-7.978,1.158-14.003-0.683c-0.446-12.162-0.232-23.058,5.276-29.768
					C682.67,353.66,688.99,351.954,688.99,351.954z"/>
				<path style="fill:#4EA2E5;" d="M681.663,327.302l5.945,0.789c0,0,2.718,7.889,2.718,14.126c0,6.237-1.336,9.737-1.336,9.737
					s-7.058,3.439-19.249,0.828c-1.753-11.838-0.605-23.785-0.605-23.785l5.104-1.321
					C674.24,327.677,677.837,329.699,681.663,327.302z"/>
				<path style="fill:#F26B51;" d="M695.688,350.097c0,0,1.111,3.187-5.115,4.711c-5.453,1.334-13.475,3.455-16.788,4.265
					c-1.106,0.271-2.195-0.267-2.501-1.233v0c-0.306-0.966,0.273-2.032,1.333-2.449c3.175-1.248,10.928-4.199,16.176-6.194
					C694.78,346.92,695.688,350.097,695.688,350.097z"/>
				<path style="fill:#F26B51;" d="M650.916,343.596c0,0-1.953,2.753,3.763,6.046c5.006,2.884,9.922,5.878,12.964,7.63
					c1.016,0.585,2.232,0.384,2.794-0.458l0.093-0.148c0.562-0.843,0.28-2.043-0.651-2.755c-2.788-2.134-7.308-5.704-11.935-9.166
					C652.666,340.794,650.916,343.596,650.916,343.596z"/>
				<path style="fill:#1C344D;" d="M695.386,439.322h4.51l1.017-1.788l2.414,0.828c8.291,0.428,6.698,4.198,6.698,4.198
					s-5.432,0-14.638,0C694.838,441.063,695.386,439.322,695.386,439.322z"/>
				<path style="fill:#F26B51;" d="M673.314,437.082c0,0,8.128,3.631,9.092,4.093s1.366,1.386-1.125,1.386h-10.378
					c-1.162,0-2.104-0.774-2.104-1.729v-3.75H673.314z"/>
				<path style="fill:#1C344D;" d="M668.799,439.322h4.51l1.017-1.788l2.414,0.828c8.29,0.428,6.698,4.198,6.698,4.198
					s-5.432,0-14.638,0C668.251,441.063,668.799,439.322,668.799,439.322z"/>
				<path style="fill:#F26B51;" d="M671.598,361.41c0.29-0.235-1.366-2.511-1.366-2.511s2.922,2.624,3.215,2.357
					s-2.473-3.028-2.473-3.028s3.534,2.436,3.769,2.115c0.235-0.321-2.977-2.811-2.977-2.811s3.548,2.027,3.679,1.608
					c0.131-0.419-4.201-3.39-4.201-3.39s2.804,1.019,3.076,0.767c0.189-0.175-0.46-0.518-1.446-1.128
					c-1.811-1.12-3.699-1.593-3.699-1.593l-2.219,2.349C666.957,356.145,671.308,361.645,671.598,361.41z"/>
				<path style="fill:#F26B51;" d="M670.282,361.039c-0.17-0.333,2.268-1.741,2.268-1.741s-3.736,1.212-3.895,0.85
					c-0.159-0.362,3.489-1.764,3.489-1.764s-4.218,0.792-4.303,0.404c-0.085-0.389,3.862-1.362,3.862-1.362
					s-4.065,0.413-4.015-0.023c0.05-0.436,5.215-1.394,5.215-1.394s-2.976-0.206-3.122-0.547c-0.102-0.237,0.631-0.287,1.779-0.444
					c2.109-0.289,4.027,0.045,4.027,0.045l1.074,3.047C676.66,358.11,670.451,361.371,670.282,361.039z"/>
				<g>
					<path style="fill:#FFFFFF;" d="M681.663,316.933h-8.05l-0.987,4.738c0,0,1.683,3.117,5.28,3.117s5.28-3.038,5.28-3.038
						L681.663,316.933z"/>
					
						<line style="fill:none;stroke:#FFFFFF;stroke-width:0.5121;stroke-miterlimit:10;" x1="684.729" y1="314.654" x2="680.969" y2="317.627"/>
					
						<line style="fill:none;stroke:#FFFFFF;stroke-width:0.5121;stroke-miterlimit:10;" x1="670.746" y1="314.654" x2="674.506" y2="317.627"/>
				</g>
				<path style="fill:#1C344D;" d="M685.803,314.866c0,0-6.211,1.206-11.353-6.704c-0.946,5.402-3.139,7.186-4.985,7.186
					c0-4.003,3.591-9.357,8.469-9.357S684.79,309.367,685.803,314.866z"/>
			</g>
		</g>
		<g>
			<ellipse style="fill:#DF5719;" cx="574.788" cy="442.4" rx="32.252" ry="7.673"/>
			<g>
				<path style="fill:#1C344D;" d="M561.276,321.278c4.984-3.394,0.561-7.884,3.095-13.741c2.393-5.531,6.761-5.117,7.24-5.053
					c0.479-0.063,4.846-0.478,7.24,5.053c2.534,5.857-1.89,10.347,3.095,13.741c4.969,3.383-0.909,8.593-10.29,8.626
					c0,0,0,0.001,0,0.002c-0.015,0-0.03-0.001-0.045-0.001c-0.015,0-0.03,0.001-0.045,0.001c0,0,0-0.001,0-0.002
					C562.185,329.87,556.307,324.661,561.276,321.278z"/>
				<path style="fill:#F26B51;" d="M582.615,436.953c0,0,8.078,3.716,9.065,4.189c0.987,0.473,1.398,1.419-1.151,1.419h-10.622
					c-1.189,0-2.154-0.792-2.154-1.77l0.081-3.838H582.615z"/>
				<path style="fill:#F26B51;" d="M563.427,325.003c0,0-3.823,0.764-5.253,5.953c-0.246,5.903-0.908,14.998-1.058,18.585
					c-0.05,1.198,1.139,1.888,2.636,2.095l0,0c1.497,0.207,2.866-0.532,3.142-1.698c0.827-3.493,2.708-12.014,3.977-17.781
					C568.32,325.577,563.427,325.003,563.427,325.003z"/>
				<path style="fill:#F26B51;" d="M564.613,325.935c0.181-0.056,0.362-0.112,0.544-0.167c5.248-1.569,10.693-1.569,15.941-0.002
					c0.184,0.055,0.368,0.111,0.551,0.168c0.633,0.198,1.119,0.876,1.244,1.736c0.861,5.928,0.049,25.258-0.251,31.648
					c-0.055,1.167-0.774,2.072-1.642,2.072h-7.861h-0.015h-7.861c-0.868,0-1.587-0.904-1.642-2.072
					c-0.3-6.39-1.113-25.72-0.251-31.648C563.494,326.811,563.98,326.133,564.613,325.935z"/>
				<path style="fill:#1C344D;" d="M560.935,404.157c-0.691-5.612-1.339-11.23-1.899-16.857c-0.528-5.304-1.364-10.868-1.048-16.208
					c0.23-3.876,1.565-8.098,3.036-11.675c0.229-0.556,1.712-4.466,2.588-4.466c0,0,19.216,0,19.221,0
					c0.655,0,2.086,4.212,2.257,4.663c2.322,6.116,2.454,11.976,2.049,18.386c-0.382,6.042-0.949,12.073-1.554,18.096
					c-0.263,2.617-0.537,5.234-0.821,7.849c-0.048,0.442-0.146,0.868-0.285,1.273c-0.079,6.339-1.864,31.735-1.864,31.735h-4.782
					c0,0-1.29-28.954-1.11-32.748c0.001-0.017,0.004-0.031,0.005-0.048c-0.936-7.606-2.659-22.394-2.928-30.305
					c-0.147,0.002-0.29,0.008-0.44,0.008c-0.622,0-1.217-0.023-1.797-0.058c-0.329,8.565-1.824,23.057-2.594,30.144
					c-0.048,0.442-0.146,0.868-0.285,1.272c-0.079,6.339-1.864,31.735-1.864,31.735h-4.782c0,0-1.29-28.954-1.11-32.748
					C560.931,404.188,560.935,404.174,560.935,404.157z"/>
				<path style="fill:#F26B51;" d="M582.038,325.003c0,0,4.972-0.787,5.253,5.953c0.246,5.903,0.908,15.07,1.058,18.657
					c0.05,1.198-1.139,1.816-2.636,2.022l0,0c-1.497,0.207-2.866-0.532-3.142-1.698c-0.827-3.493-2.708-12.014-3.977-17.781
					C577.145,325.577,582.038,325.003,582.038,325.003z"/>
				<path style="fill:#4EA2E5;" d="M573.131,323.931l10.147,1.109l-0.444,29.912c-6.392,1.993-12.799,1.984-19.222,0l-0.627-29.976
					L573.131,323.931z"/>
				<path style="fill:#F26B51;" d="M588.268,350.102c0,0-0.997,3.308-7.249,0.759c-5.476-2.232-13.628-5.386-16.956-6.743
					c-1.111-0.453-1.713-1.562-1.385-2.545l0,0c0.328-0.984,1.474-1.51,2.635-1.205c3.476,0.911,11.906,3.216,17.611,4.777
					C589.432,346.927,588.268,350.102,588.268,350.102z"/>
				<path style="fill:#F26B51;" d="M557.197,350.102c0,0,0.997,3.308,7.249,0.759c5.476-2.232,13.628-5.386,16.956-6.743
					c1.111-0.453,1.713-1.562,1.385-2.545l0,0c-0.328-0.984-1.474-1.51-2.635-1.205c-3.476,0.911-11.906,3.216-17.611,4.777
					C556.033,346.927,557.197,350.102,557.197,350.102z"/>
				<g>
					<path style="fill:#F26B51;" d="M573.149,328.488L573.149,328.488c-2.098,0-3.799-1.701-3.799-3.799v-7.087h7.598v7.087
						C576.948,326.788,575.247,328.488,573.149,328.488z"/>
					<path style="fill:#F26B51;" d="M570.378,320.124c0,0,1.389,3.283,6.57,3.283c0-3.442,0-4.328,0-4.328L570.378,320.124z"/>
				</g>
				<path style="fill:#4EA2E5;" d="M583.278,325.04c0,0,5.071-0.304,5.071,9.301c-3.008,0-5.473,0-5.473,0L583.278,325.04z"/>
				<path style="fill:#4EA2E5;" d="M562.985,325.04c0,0-5.071-0.304-5.071,9.301c3.008,0,5.552,0,5.552,0L562.985,325.04z"/>
				<path style="fill:#4EA2E5;" d="M586.076,438.547l-1.942,3.179h-6.487c-0.231,0-0.418,0.187-0.418,0.418l0,0
					c0,0.231,0.187,0.418,0.418,0.418h14.905c0.231,0,0.418-0.187,0.418-0.418v-0.039c0-0.231-0.187-0.418-0.418-0.418h-3.479
					l0.79-1.392l-3.97-1.748"/>
				<path style="fill:#F26B51;" d="M566.875,436.953c0,0,8.078,3.716,9.064,4.189c0.987,0.473,1.398,1.419-1.151,1.419h-10.623
					c-1.189,0-2.154-0.792-2.154-1.77l0.081-3.838H566.875z"/>
				<path style="fill:#4EA2E5;" d="M570.335,438.547l-1.942,3.179h-6.487c-0.231,0-0.418,0.187-0.418,0.418l0,0
					c0,0.231,0.187,0.418,0.418,0.418h14.905c0.231,0,0.418-0.187,0.418-0.418v-0.039c0-0.231-0.187-0.418-0.418-0.418h-3.479
					l0.79-1.392l-3.97-1.748"/>
				<path style="fill:#F26B51;" d="M557.56,343.159c0.028-0.381,2.908-0.323,2.908-0.323s-3.914-0.917-3.861-1.319
					c0.052-0.402,3.99,0.303,3.99,0.303s-4.114-1.541-3.982-1.926c0.132-0.385,4.103,0.854,4.103,0.854s-3.779-1.792-3.504-2.147
					c0.275-0.355,5.306,1.542,5.306,1.542s-2.497-1.757-2.444-2.133c0.036-0.261,0.705,0.083,1.793,0.554
					c2,0.865,3.503,2.173,3.503,2.173l-0.674,3.238C564.698,343.973,557.532,343.54,557.56,343.159z"/>
				<path style="fill:#F26B51;" d="M587.397,343.159c-0.028-0.381-2.908-0.323-2.908-0.323s3.914-0.917,3.861-1.319
					c-0.053-0.402-3.99,0.303-3.99,0.303s4.114-1.541,3.982-1.926c-0.132-0.385-4.103,0.854-4.103,0.854s3.779-1.792,3.504-2.147
					c-0.275-0.355-5.306,1.542-5.306,1.542s2.497-1.757,2.444-2.133c-0.036-0.261-0.705,0.083-1.793,0.554
					c-2,0.865-3.503,2.173-3.503,2.173l0.674,3.238C580.26,343.973,587.425,343.54,587.397,343.159z"/>
				<path style="fill:#F26B51;" d="M571.408,304.712L571.408,304.712c4.108,0,7.469,3.361,7.469,7.469v6.21
					c0,2.206-1.966,3.943-4.142,3.579c-4.842-0.809-8.563-5.044-8.563-10.106v-1.915
					C566.172,307.068,568.528,304.712,571.408,304.712z"/>
				<path style="fill:#F26B51;" d="M578.876,313.41c0,0,3.296,4.182,0,4.182"/>
				<path style="fill:#1C344D;" d="M573.523,303.499c1.162,0.327,4.147,1.431,5.459,4.394c0,0-2.04-0.203-4.003-1.212
					c-0.082,2.03-0.906,5.376-4.983,7.799c-1.955,3.13-0.646,5.99-0.646,5.99s-4.349-0.465-4.349-8.848
					C565.001,304.508,570.505,301.708,573.523,303.499z"/>
				<g>
					
						<line style="fill:none;stroke:#FFFFFF;stroke-width:0.5241;stroke-miterlimit:10;" x1="570.378" y1="312.452" x2="573.436" y2="314.533"/>
					
						<line style="fill:none;stroke:#FFFFFF;stroke-width:0.5241;stroke-miterlimit:10;" x1="568.776" y1="315.788" x2="572.524" y2="319.671"/>
					<path style="fill:#FFFFFF;" d="M572.957,314.154h6.441c0,0,0.943,1.109,0.943,2.606c0,1.497-1.95,4.683-3.921,5.258
						c-1.97,0.575-4.544-0.977-4.544-0.977L572.957,314.154z"/>
				</g>
				<path style="fill:#F26B51;" d="M571.881,313.761c0.511,1.342,0.081,2.752-0.96,3.148c-1.041,0.396-2.3-0.371-2.811-1.713
					c-0.511-1.342-0.081-2.752,0.961-3.148C570.112,311.652,571.371,312.419,571.881,313.761z"/>
			</g>
		</g>
		<g>
			<ellipse style="fill:#DF5719;" cx="459.946" cy="442.4" rx="32.252" ry="7.673"/>
			<g>
				<path style="fill:#F26B51;" d="M440.529,371.049c0,0-0.848,2.803-1.124,3.797s-1.049,2.898-1.463,2.788
					c-0.414-0.11,0.414-3.837,0.193-4.057c-0.221-0.221-1.987,1.684-2.153,2.18c-0.166,0.497,0.386,4.251,0,4.278
					c-0.386,0.028-1.352-1.904-1.601-4.057c-0.248-2.153,2.855-6.504,2.855-6.504L440.529,371.049z"/>
				<path style="fill:#F26B51;" d="M459.318,371.309c-0.173-9.099-6.764-9.9-6.764-9.9s-6.591-0.801-6.873,8.243
					c-0.216,6.939,1.727,25.862,2.643,34.294c0.259,2.379,1.944,4.331,3.947,4.574l0,0c2.003,0.243,3.709-1.297,3.996-3.609
					C457.283,396.713,459.451,378.29,459.318,371.309z"/>
				<path style="fill:#F26B51;" d="M474.862,371.309c-0.173-9.099-6.764-9.9-6.764-9.9s-6.591-0.801-6.873,8.243
					c-0.216,6.939,1.727,25.862,2.643,34.294c0.258,2.379,1.944,4.331,3.947,4.574l0,0c2.003,0.243,3.709-1.297,3.996-3.609
					C472.827,396.713,474.995,378.29,474.862,371.309z"/>
				<path style="fill:#F26B51;" d="M456.365,404.206c-0.18-3.794-3.874-3.794-3.874-3.794s-3.693,0-3.874,3.794
					c-0.18,3.794,1.856,32.748,1.856,32.748h4.782C455.255,436.953,456.545,407.999,456.365,404.206z"/>
				<path style="fill:#F26B51;" d="M450.638,436.953c0,0-8.32,3.716-9.306,4.189c-0.987,0.473-1.398,1.419,1.151,1.419h10.622
					c1.189,0,2.154-0.792,2.154-1.77v-3.838H450.638z"/>
				<path style="fill:#F26B51;" d="M471.297,401.626c-1.221-3.596-4.771-2.576-4.771-2.576s-3.55,1.02-2.675,4.716
					c0.875,3.696,10.827,30.962,10.827,30.962l4.596-1.32C479.274,433.407,472.518,405.222,471.297,401.626z"/>
				<path style="fill:#F26B51;" d="M469.662,326.623c0,0,4.972-0.787,5.253,5.953c0.247,5.903,0.837,14.607,0.987,18.194
					c0.05,1.198-1.068,2.279-2.565,2.486l0,0c-1.497,0.207-2.866-0.532-3.142-1.698c-0.827-3.493-2.708-12.014-3.977-17.781
					C464.769,327.197,469.662,326.623,469.662,326.623z"/>
				<path style="fill:#F26B51;" d="M468.476,325.935c-0.181-0.056-0.362-0.112-0.545-0.167c-5.248-1.569-10.693-1.569-15.941-0.002
					c-0.184,0.055-0.368,0.111-0.551,0.168c-0.633,0.198-1.119,0.876-1.244,1.736c-0.861,5.928-0.049,25.258,0.251,31.648
					c0.055,1.167,0.774,2.072,1.642,2.072h7.861h0.015h7.861c0.868,0,1.587-0.904,1.642-2.072c0.301-6.39,1.113-25.72,0.251-31.648
					C469.595,326.811,469.109,326.133,468.476,325.935z"/>
				<path style="fill:#F26B51;" d="M474.028,366.333c-1.565-8.441-4.551-11.382-4.551-11.382h-19.222c0,0-2.841,4.066-4.405,12.507
					c-0.227,1.226,0.319,2.463,1.384,3.146c2.098,1.346,6.185,3.255,12.493,3.255c6.308,0,10.395-1.909,12.493-3.255
					C473.286,369.922,474.255,367.559,474.028,366.333z"/>
				<g>
					<rect x="456.141" y="317.079" style="fill:#F26B51;" width="7.598" height="9.226"/>
					<path style="fill:#F26B51;" d="M463.524,320.254c0,0-2.201,2.792-7.382,2.792c0-3.442,0-3.967,0-3.967L463.524,320.254z"/>
				</g>
				<path style="fill:#F26B51;" d="M451.051,326.623c0,0-4.972-0.787-5.253,5.953c-0.246,5.903-0.837,14.607-0.987,18.194
					c-0.05,1.198,1.068,2.279,2.565,2.486l0,0c1.497,0.207,2.866-0.532,3.142-1.698c0.827-3.493,2.708-12.014,3.977-17.781
					C455.944,327.197,451.051,326.623,451.051,326.623z"/>
				<path style="fill:#F26B51;" d="M448.317,347.809c0,0-3.147-1.426-5.341,4.96c-1.922,5.592-4.909,13.807-6.077,17.206
					c-0.39,1.135,0.049,2.318,1.005,2.718l0,0c0.957,0.4,2.107-0.117,2.641-1.192c1.601-3.217,5.411-11.082,7.988-16.406
					C451.473,349.02,448.317,347.809,448.317,347.809z"/>
				<path style="fill:#4EA2E5;" d="M474.061,402.29c0-2.161,7.897-37.696-4.359-48.397h-19.49c0,0-5.404,7.33-5.404,24.415
					c0,17.086,0.99,57.329,0.99,57.329h11.793l2.884-61.787c0,0,1.027,21.75,1.954,29.469c0.926,7.719,8.496,31.408,8.496,31.408
					l10.442-2.795C481.368,431.932,474.061,404.452,474.061,402.29z"/>
				<path style="fill:#1C344D;" d="M456.141,323.931c0,0-7.799,0.661-10.342,4.357c-2.039,2.963-1.82,18.321-2.527,20.688
					c-0.707,2.367-9.388,18.662-6.373,20.999c3.015,2.337,4.651,3.146,5.46,2.337c0.809-0.809,2.882-6.044,2.882-6.044
					s14.204,1.853,23.004,1.853c8.8,0,10.241-4.623,9.52-7.87c-0.72-3.246-0.874-17.861-1.862-25.272
					c-0.988-7.411-0.871-8.301-12.164-11.047C459.342,325.406,456.141,323.931,456.141,323.931z"/>
				<path style="fill:#F26B51;" d="M475.892,351.721c0,0-0.996,3.308-7.249,0.759c-5.476-2.232-13.628-5.386-16.956-6.743
					c-1.111-0.453-1.713-1.562-1.385-2.545l0,0c0.328-0.984,1.475-1.509,2.635-1.205c3.476,0.911,11.906,3.216,17.611,4.777
					C477.056,348.546,475.892,351.721,475.892,351.721z"/>
				<path style="fill:#1C344D;" d="M453.05,348.333c-1.196-0.669-1.805-2.055-1.472-3.385c0.372-1.484,0.964-3.291,1.777-4.104
					c1.501-1.501,14.889,3.602,14.889,3.602s-0.556-13.125,2.681-18.141c4.781,1.365,4.884,3.629,6.119,14.951
					c1.235,11.322-1.019,14.615-6.119,14.615C466.969,355.871,457.22,350.665,453.05,348.333z"/>
				<path style="fill:#1C344D;" d="M450.442,436.509c0,0-6.51,2.003-9.076,2.845c-2.566,0.842-1.323,3.207-1.323,3.207h15.216
					v-5.608C455.259,436.953,453.103,438.034,450.442,436.509z"/>
				<path style="fill:#F26B51;" d="M474.82,434.289c0,0-7.026,5.802-7.85,6.521c-0.825,0.719-0.968,1.74,1.488,1.06l10.237-2.836
					c1.146-0.318,1.864-1.338,1.603-2.28l-1.025-3.699L474.82,434.289z"/>
				<path style="fill:#1C344D;" d="M474.513,433.913c0,0-5.739,3.668-7.988,5.165c-2.248,1.497-0.419,3.444-0.419,3.444
					l14.664-4.062l-1.497-5.404C479.273,433.056,477.484,434.673,474.513,433.913z"/>
				<path style="fill:#F26B51;" d="M445.404,344.68c0.028-0.381,2.908-0.323,2.908-0.323s-3.914-0.918-3.861-1.319
					c0.052-0.402,3.99,0.303,3.99,0.303s-4.114-1.541-3.982-1.926c0.132-0.385,4.103,0.854,4.103,0.854s-3.779-1.792-3.504-2.147
					c0.275-0.355,5.306,1.542,5.306,1.542s-2.497-1.757-2.444-2.133c0.036-0.261,0.705,0.083,1.793,0.553
					c2,0.865,3.503,2.173,3.503,2.173l-0.674,3.238C452.542,345.494,445.376,345.061,445.404,344.68z"/>
				<path style="fill:#F26B51;" d="M456.564,322.109h1.963c4.776,0,8.684-3.908,8.684-8.684v-3.954c0-2.993-2.449-5.442-5.442-5.442
					h-2.32c-2.993,0-5.442,2.449-5.442,5.442v10.082C454.008,320.959,455.158,322.109,456.564,322.109z"/>
				<path style="fill:#F26B51;" d="M454.008,313.069c0,0-3.425,4.346,0,4.346"/>
				<path style="fill:#1C344D;" d="M461.624,314.052c0,0-2.261-2.496-1.729-7.551c-4.389,0-5.557,1.129-5.557,1.129
					s-2.69-2.326,0.769-5.185s12.237-2.128,13.501,3.591c1.264,5.72,0.54,11.607-4.986,14.409
					C464.084,316.211,461.624,314.052,461.624,314.052z"/>
				<g>
					
						<line style="fill:none;stroke:#FFFFFF;stroke-width:0.5241;stroke-miterlimit:10;" x1="462.207" y1="312.665" x2="459.149" y2="314.745"/>
					
						<line style="fill:none;stroke:#FFFFFF;stroke-width:0.5241;stroke-miterlimit:10;" x1="463.81" y1="316.001" x2="460.061" y2="319.884"/>
					<path style="fill:#FFFFFF;" d="M459.628,314.367h-6.441c0,0-0.943,1.109-0.943,2.606c0,1.497,1.95,4.683,3.921,5.258
						c1.97,0.575,4.757-0.461,4.757-0.461L459.628,314.367z"/>
				</g>
				<path style="fill:#F26B51;" d="M460.704,313.974c-0.511,1.342-0.081,2.752,0.961,3.148c1.041,0.396,2.3-0.371,2.81-1.713
					c0.511-1.342,0.081-2.752-0.961-3.148C462.473,311.865,461.215,312.632,460.704,313.974z"/>
			</g>
		</g>
	</g>
</g>
</svg>
